<?xml version="1.0" encoding="utf-8"?>
<!-- Generator: Adobe Illustrator 19.0.0, SVG Export Plug-In . SVG Version: 6.00 Build 0)  -->
<svg version="1.1" xmlns="http://www.w3.org/2000/svg" xmlns:xlink="http://www.w3.org/1999/xlink" x="0px" y="0px"
	 viewBox="0 0 110.9 91.9" style="enable-background:new 0 0 110.9 91.9;" xml:space="preserve">
<style type="text/css">
	.st0{opacity:0.75;fill:#C6978E;enable-background:new    ;}
	.st1{opacity:0.75;fill:#311C1C;enable-background:new    ;}
	.st2{fill:#EEEDED;}
	.st3{fill:#DADADA;}
	.st4{fill:#FFFFFF;}
	.st5{fill:#C7C6C7;}
	.st6{fill:#62381F;}
	.st7{fill:#F9E9D2;}
	.st8{fill:#F1DABE;}
	.st9{fill:#FFF4E7;}
	.st10{fill:#724124;}
	.st11{fill:#522E1A;}
	.st12{fill:#814929;}
	.st13{fill:#D1E7F0;}
	.st14{fill:#935333;}
	.st15{fill:#6C3B23;}
	.st16{fill:#FFF9F0;}
	.st17{fill:#F4E7DB;}
	.st18{fill:#FFF6EC;}
	.st19{fill:#432717;}
	.st20{fill:#E6F4F9;}
	.st21{fill:#BCDADF;}
	.st22{opacity:0.25;fill:#D1E7F0;enable-background:new    ;}
</style>
<g id="Ebene_3">
	<ellipse id="XMLID_293_" class="st0" cx="55.5" cy="79.2" rx="55.5" ry="12.7"/>
</g>
<g id="Ebene_5">
	<ellipse id="XMLID_460_" class="st1" cx="55.7" cy="78.4" rx="28.8" ry="6.6"/>
	<g id="XMLID_387_">
		<path id="XMLID_459_" class="st2" d="M55.7,69.6H39.9c0,9.1,10,8.8,15.8,8.8c5.8,0,15.8,0.3,15.8-8.8H55.7z"/>
		<path id="XMLID_458_" class="st3" d="M71.1,72.3c0.2-0.8,0.4-1.7,0.4-2.7H55.7H44.6h-4.7c0,0.5,0,1,0.1,1.5
			c1,7.6,10.2,7.3,15.7,7.3c0.7,0,1.5,0,2.4,0c-4.2,0-9.4-0.5-11.9-3.7c2.9,0.8,6,1.2,9.5,1.2C61.7,75.9,66.8,74.6,71.1,72.3z"/>
		<g id="XMLID_456_">
			<path id="XMLID_457_" class="st2" d="M88.6,60c-1.2,0-2.3-0.1-3.5-0.2c-6.7-0.9-13.5-4.1-20.4-9.6l3.6-4.4c6,4.9,12,7.7,17.6,8.4
				c6.6,0.9,13.1-1.4,16.5-5.9c3.7-4.7,3.4-11.9-0.6-15.4c-2.1-1.8-5.2-2.8-8.6-2.7c-2.9,0.1-6.1,1.1-9.7,2.9l-2.5-5.1
				c4.3-2.2,8.2-3.3,12-3.5c4.8-0.2,9.4,1.2,12.6,4c6.3,5.5,6.9,16.1,1.3,23.2C102.7,57,95.9,60,88.6,60z"/>
		</g>
		<g id="XMLID_453_">
			<path id="XMLID_455_" class="st3" d="M85.8,54.2c-5.6-0.7-11.5-3.6-17.6-8.4l-3.6,4.4c6.9,5.5,13.7,8.8,20.4,9.6
				c0.6,0.1,1.1,0.1,1.7,0.2c1.2-1.8,2.3-3.7,3.2-5.7C88.6,54.4,87.2,54.3,85.8,54.2z"/>
			<path id="XMLID_454_" class="st3" d="M92.8,24.6c-3.8,0.2-7.7,1.3-12,3.5l2.5,5.1c3.6-1.8,6.8-2.8,9.7-2.9c1.1-0.1,2.3,0,3.3,0.2
				c0.2-2,0.4-3.9,0.6-5.6C95.6,24.6,94.2,24.5,92.8,24.6z"/>
		</g>
		<path id="XMLID_452_" class="st2" d="M93.3,11.4c0-6.2-16.9-11.2-37.7-11.2C34.8,0.2,18,5.2,18,11.4c0,0-4.3,63,37.7,63
			S93.3,11.4,93.3,11.4z"/>
		<path id="XMLID_451_" class="st7" d="M55.7,21.4c-19.2,0-34.8-6.3-34.8-6.3c0-4.8,15.6-8.7,34.8-8.7s34.8,3.9,34.8,8.7
			C90.4,15.1,74.9,21.4,55.7,21.4z"/>
		<g id="XMLID_446_">
			<path id="XMLID_450_" class="st3" d="M61.9,0.3c0.1,0,0.2,0,0.3,0C62.1,0.4,62,0.3,61.9,0.3z"/>
			<polygon id="XMLID_449_" class="st3" points="68.1,0.8 68.1,0.8 68.1,0.8 			"/>
			<path id="XMLID_448_" class="st3" d="M28.1,19.1c-6.3-2-10.1-4.7-10.1-7.6c0,0-4.3,63,37.7,63c1,0,1.9,0,2.8-0.1
				C32,68.8,28.4,34.2,28.1,19.1z"/>
			<path id="XMLID_447_" class="st3" d="M58.6,0.2c0.1,0,0.3,0,0.5,0C58.9,0.2,58.8,0.2,58.6,0.2z"/>
		</g>
		<path id="XMLID_445_" class="st7" d="M55.7,22.6c-15.7,0-29.1-2.9-34.8-6.9c-0.3,10.7,0.7,55.7,34.8,55.7c34.1,0,35-45,34.8-55.7
			C84.8,19.8,71.3,22.6,55.7,22.6z"/>
		<path id="XMLID_444_" class="st18" d="M54.2,71.4c31.1-1.3,33.4-41.1,33.3-54c-2.1,1-4.7,1.9-7.6,2.6c-0.3,14.2-3.8,47.1-29.6,51
			C51.5,71.2,52.8,71.3,54.2,71.4z"/>
		<path id="XMLID_443_" class="st8" d="M49.5,70.9C31.1,60.4,28.3,32.3,28.1,19.1c-3-1-5.5-2.1-7.2-3.3
			C20.6,25.7,21.5,65.8,49.5,70.9z"/>
		<g id="XMLID_436_">
			<path id="XMLID_442_" class="st8" d="M60.4,11.2c-2.2,0-4-0.5-4-1.1s1.8-1.1,4-1.1s4,0.5,4,1.1S62.6,11.2,60.4,11.2z"/>
			<path id="XMLID_441_" class="st8" d="M77.3,14.8c-2.2,0-4-0.5-4-1.1c0-0.6,1.8-1.1,4-1.1c2.2,0,4,0.5,4,1.1
				C81.3,14.3,79.5,14.8,77.3,14.8z"/>
			<path id="XMLID_440_" class="st8" d="M48.7,11.4c-1.6,0-2.9-0.4-2.9-0.8c0-0.5,1.3-0.8,2.9-0.8c1.6,0,2.9,0.4,2.9,0.8
				C51.6,11,50.3,11.4,48.7,11.4z"/>
			<path id="XMLID_439_" class="st8" d="M57.9,15.5c-1.3,0-2.3-0.3-2.3-0.7c0-0.4,1-0.7,2.3-0.7c1.3,0,2.3,0.3,2.3,0.7
				C60.2,15.2,59.2,15.5,57.9,15.5z"/>
			<path id="XMLID_438_" class="st8" d="M72.4,10.1c-1.3,0-2.3-0.3-2.3-0.7c0-0.4,1-0.7,2.3-0.7s2.3,0.3,2.3,0.7
				C74.6,9.8,73.6,10.1,72.4,10.1z"/>
			<path id="XMLID_437_" class="st8" d="M68.9,16.4c-0.8,0-1.5-0.2-1.5-0.4s0.7-0.4,1.5-0.4s1.5,0.2,1.5,0.4S69.7,16.4,68.9,16.4z"
				/>
		</g>
		<g id="XMLID_434_">
			<path id="XMLID_435_" class="st4" d="M105.4,28.6c-3.2-2.8-7.8-4.3-12.6-4c-0.1,0-0.1,0-0.2,0c4,0.2,7.8,1.6,10.5,4
				c6.3,5.5,6.9,16.1,1.3,23.2c-3.9,4.9-10.1,7.8-16.9,8.2c0.3,0,0.7,0,1,0c7.3,0,14.1-3,18.2-8.2C112.3,44.7,111.7,34.1,105.4,28.6
				z"/>
		</g>
		<path id="XMLID_433_" class="st8" d="M38.2,11c0-1.4,1.3-2.7,3.7-3.9c-12.3,1.3-21,4.4-21,8c0,0,15.6,6.3,34.8,6.3
			c6.3,0,12.1-0.7,17.2-1.6C53.6,19.8,38.2,15.9,38.2,11z"/>
		<path id="XMLID_430_" class="st4" d="M55.7,0.2C34.8,0.2,18,5.2,18,11.4s16.9,11.2,37.7,11.2c20.8,0,37.7-5,37.7-11.2
			S76.5,0.2,55.7,0.2z M55.7,20.2c-19.5,0-35.3-4-35.3-8.8s15.8-8.8,35.3-8.8s35.3,4,35.3,8.8C90.9,16.3,75.1,20.2,55.7,20.2z"/>
		<path id="XMLID_429_" class="st8" d="M49.5,70.9C31.1,60.4,28.3,32.3,28.1,19.1c-3-1-5.5-2.1-7.2-3.3
			C20.6,25.7,21.5,65.8,49.5,70.9z"/>
		<path id="XMLID_428_" class="st16" d="M55.6,43.5c-17.1,0-31.2-3.4-33.3-7.8c2.9,16.4,10.9,35.7,33.3,35.7
			c22.6,0,30.6-19.9,33.4-36.3C88.1,39.8,73.5,43.5,55.6,43.5z"/>
		<path id="XMLID_427_" class="st4" d="M85.4,38.7c-2,1-4.9,2-8.2,2.7C73.8,54.8,66.4,68.6,50.3,71c1.2,0.2,2.6,0.3,3.9,0.4
			C74.1,70.6,82.2,53.9,85.4,38.7z"/>
		<path id="XMLID_426_" class="st17" d="M30.5,40.5c-4.4-1.3-7.4-3-8.2-4.8c0.1,0.5,0.2,1,0.3,1.5c0,0,0,0.1,0,0.1
			c0.3,1.4,0.6,2.8,0.9,4.3c0.1,0.2,0.1,0.4,0.2,0.7c0.1,0.4,0.2,0.8,0.3,1.1c0.1,0.3,0.2,0.7,0.3,1c0.1,0.5,0.3,0.9,0.4,1.4
			c0.1,0.4,0.3,0.8,0.4,1.2c0.1,0.3,0.2,0.5,0.3,0.8c0.2,0.5,0.3,0.9,0.5,1.4c0.1,0.2,0.1,0.3,0.2,0.5c0.2,0.6,0.5,1.2,0.8,1.8
			c0.1,0.2,0.2,0.3,0.2,0.5c0.2,0.5,0.5,1,0.7,1.5c0.1,0.1,0.1,0.3,0.2,0.4c0.3,0.6,0.7,1.3,1,1.9c0,0.1,0.1,0.1,0.1,0.2
			c0.3,0.6,0.7,1.1,1,1.7c0.1,0.1,0.1,0.2,0.2,0.3c0.8,1.2,1.7,2.4,2.6,3.5c0.1,0.1,0.1,0.1,0.2,0.2c1,1.1,2,2.1,3.1,3.1
			c0,0,0.1,0.1,0.1,0.1c0.5,0.5,1.1,0.9,1.7,1.3c0,0,0,0,0.1,0.1c1.2,0.9,2.5,1.7,3.9,2.3c0.1,0,0.1,0.1,0.2,0.1
			c1.4,0.7,2.9,1.2,4.4,1.7c0.1,0,0.2,0,0.3,0.1c0.8,0.2,1.6,0.4,2.4,0.5C38.6,64.7,33.2,52.3,30.5,40.5z"/>
		<path id="XMLID_425_" class="st6" d="M55.7,60.4c-14.1,0-25.7-3.2-28-7.3c5,10.2,13.5,18.4,28,18.4c14.4,0,22.9-8.1,27.9-18.2
			C81,57.3,69.5,60.4,55.7,60.4z"/>
		<path id="XMLID_424_" class="st10" d="M78.6,56.7c-2.5,1.1-5.7,1.9-9.4,2.6c-4.3,5.9-10.4,10.4-19,11.7c1.2,0.2,2.6,0.3,3.9,0.4
			C66,70.9,73.7,64.8,78.6,56.7z"/>
		<path id="XMLID_423_" class="st11" d="M27.7,53c0,0.1,0,0.1,0.1,0.2c0.2,0.5,0.5,0.9,0.7,1.4c0.1,0.2,0.2,0.4,0.3,0.6
			c0.2,0.4,0.5,0.8,0.7,1.3c0.1,0.2,0.3,0.5,0.4,0.7c0.2,0.4,0.5,0.8,0.7,1.1c0.2,0.3,0.4,0.6,0.6,0.9c0.2,0.3,0.4,0.6,0.6,0.8
			c0.2,0.3,0.5,0.6,0.7,0.9c0.2,0.3,0.4,0.5,0.7,0.8c0.4,0.4,0.8,0.8,1.2,1.2c0.1,0.1,0.2,0.2,0.3,0.3c0.5,0.5,1,1,1.6,1.5
			c0,0,0.1,0.1,0.1,0.1c0.5,0.5,1.1,0.9,1.7,1.3c0.1,0.1,0.3,0.2,0.4,0.3c0.5,0.3,1,0.7,1.5,1c0.1,0.1,0.2,0.1,0.4,0.2
			c0.5,0.3,1.1,0.6,1.7,0.9c0.2,0.1,0.4,0.2,0.6,0.3c0.5,0.2,1.1,0.5,1.6,0.7c0.2,0.1,0.3,0.1,0.5,0.2c0.6,0.2,1.1,0.4,1.7,0.6
			c0.2,0.1,0.5,0.1,0.7,0.2c0.6,0.1,1.1,0.3,1.7,0.4c0.1,0,0.3,0.1,0.4,0.1c-5.3-3-9.2-7.5-12.2-12.6C32.3,56.9,28.8,55.1,27.7,53z"
			/>
		<g id="XMLID_412_">
			<path id="XMLID_422_" class="st8" d="M34,24.7c-0.8,0-0.8,1.2,0,1.2C34.8,25.9,34.8,24.7,34,24.7z"/>
			<path id="XMLID_421_" class="st8" d="M43.5,37.7c-0.8,0-0.8,1.2,0,1.2C44.3,38.9,44.3,37.7,43.5,37.7z"/>
			<path id="XMLID_420_" class="st8" d="M51.4,26.4c-0.8,0-0.8,1.2,0,1.2C52.1,27.6,52.1,26.4,51.4,26.4z"/>
			<path id="XMLID_419_" class="st8" d="M43.4,26.4c-1.5,0-1.5,2.4,0,2.4C44.9,28.8,44.9,26.4,43.4,26.4z"/>
			<path id="XMLID_418_" class="st8" d="M35.1,35c-1.5,0-1.5,2.4,0,2.4C36.6,37.4,36.6,35,35.1,35z"/>
			<path id="XMLID_417_" class="st8" d="M54.1,35c-1.5,0-1.5,2.4,0,2.4C55.7,37.4,55.7,35,54.1,35z"/>
			<path id="XMLID_416_" class="st8" d="M65,25.7c-1.5,0-1.5,2.4,0,2.4C66.6,28.1,66.6,25.7,65,25.7z"/>
			<path id="XMLID_415_" class="st8" d="M72.9,36.1c-1.5,0-1.5,2.4,0,2.4C74.4,38.5,74.4,36.1,72.9,36.1z"/>
			<path id="XMLID_414_" class="st8" d="M74.9,25.7c-0.8,0-0.8,1.2,0,1.2C75.7,26.9,75.7,25.7,74.9,25.7z"/>
			<path id="XMLID_413_" class="st8" d="M63,36.1c-0.8,0-0.8,1.2,0,1.2C63.8,37.3,63.8,36.1,63,36.1z"/>
		</g>
		<g id="XMLID_409_">
			<path id="XMLID_411_" class="st7" d="M83.7,25.4c-1.5,0-1.5,2.4,0,2.4C85.2,27.8,85.2,25.4,83.7,25.4z"/>
			<path id="XMLID_410_" class="st7" d="M81.3,35.6c-0.8,0-0.8,1.2,0,1.2C82.1,36.8,82.1,35.6,81.3,35.6z"/>
		</g>
		<path id="XMLID_408_" class="st8" d="M85.4,20.7c-0.8,0-0.8,1.2,0,1.2C86.2,21.9,86.2,20.7,85.4,20.7z"/>
		<g id="XMLID_404_">
			<path id="XMLID_407_" class="st16" d="M78.9,49.7c-1.5,0-1.5,2.4,0,2.4C80.4,52.1,80.4,49.7,78.9,49.7z"/>
			<path id="XMLID_406_" class="st16" d="M78.7,43.7c-0.8,0-0.8,1.2,0,1.2C79.5,44.9,79.5,43.7,78.7,43.7z"/>
			<path id="XMLID_405_" class="st16" d="M74.3,54.6c-0.8,0-0.8,1.2,0,1.2C75.1,55.8,75.1,54.6,74.3,54.6z"/>
		</g>
		<g id="XMLID_395_">
			<path id="XMLID_403_" class="st17" d="M37.8,45c-0.8,0-0.8,1.2,0,1.2C38.6,46.2,38.6,45,37.8,45z"/>
			<path id="XMLID_402_" class="st17" d="M41.2,52.7c-1.5,0-1.5,2.4,0,2.4C42.7,55.1,42.7,52.7,41.2,52.7z"/>
			<path id="XMLID_401_" class="st17" d="M51.2,46.2c-1.5,0-1.5,2.4,0,2.4C52.8,48.6,52.8,46.2,51.2,46.2z"/>
			<path id="XMLID_400_" class="st17" d="M56.9,54.3c-1.5,0-1.5,2.4,0,2.4C58.4,56.7,58.4,54.3,56.9,54.3z"/>
			<path id="XMLID_399_" class="st17" d="M68.8,46.2c-1.5,0-1.5,2.4,0,2.4C70.4,48.6,70.4,46.2,68.8,46.2z"/>
			<path id="XMLID_398_" class="st17" d="M67.4,54.6c-0.8,0-0.8,1.2,0,1.2C68.1,55.8,68.1,54.6,67.4,54.6z"/>
			<path id="XMLID_397_" class="st17" d="M60.1,47.6c-0.8,0-0.8,1.2,0,1.2C60.9,48.8,60.9,47.6,60.1,47.6z"/>
			<path id="XMLID_396_" class="st17" d="M48,52.3c-0.8,0-0.8,1.2,0,1.2C48.8,53.5,48.8,52.3,48,52.3z"/>
		</g>
		<g id="XMLID_391_">
			<path id="XMLID_394_" class="st11" d="M45.2,61.6c-0.8,0-0.8,1.2,0,1.2C46,62.8,46,61.6,45.2,61.6z"/>
			<path id="XMLID_393_" class="st11" d="M50.6,65.7c-1.5,0-1.5,2.4,0,2.4C52.1,68.1,52.1,65.7,50.6,65.7z"/>
			<path id="XMLID_392_" class="st11" d="M59.3,61.7c-0.8,0-0.8,1.2,0,1.2C60.1,62.9,60.1,61.7,59.3,61.7z"/>
		</g>
		<g id="XMLID_388_">
			<path id="XMLID_390_" class="st6" d="M64.2,66.9c-0.8,0-0.8,1.2,0,1.2C65,68.1,65,66.9,64.2,66.9z"/>
			<path id="XMLID_389_" class="st6" d="M70.3,61.4c-1.5,0-1.5,2.4,0,2.4C71.8,63.8,71.8,61.4,70.3,61.4z"/>
		</g>
	</g>
</g>
</svg>
