<?xml version="1.0" encoding="utf-8"?>
<!-- Generator: Adobe Illustrator 19.0.0, SVG Export Plug-In . SVG Version: 6.00 Build 0)  -->
<svg version="1.1" xmlns="http://www.w3.org/2000/svg" xmlns:xlink="http://www.w3.org/1999/xlink" x="0px" y="0px"
	 viewBox="0 0 110.9 91.9" style="enable-background:new 0 0 110.9 91.9;" xml:space="preserve">
<style type="text/css">
	.st0{opacity:0.75;fill:#C6978E;enable-background:new    ;}
	.st1{opacity:0.75;fill:#311C1C;enable-background:new    ;}
	.st2{fill:#EEEDED;}
	.st3{fill:#DADADA;}
	.st4{fill:#FFFFFF;}
	.st5{fill:#C7C6C7;}
	.st6{fill:#62381F;}
	.st7{fill:#F9E9D2;}
	.st8{fill:#F1DABE;}
	.st9{fill:#FFF4E7;}
	.st10{fill:#724124;}
	.st11{fill:#522E1A;}
	.st12{fill:#814929;}
	.st13{fill:#D1E7F0;}
	.st14{fill:#935333;}
	.st15{fill:#6C3B23;}
	.st16{fill:#FFF9F0;}
	.st17{fill:#F4E7DB;}
	.st18{fill:#FFF6EC;}
	.st19{fill:#432717;}
	.st20{fill:#E6F4F9;}
	.st21{fill:#BCDADF;}
	.st22{opacity:0.25;fill:#D1E7F0;enable-background:new    ;}
</style>
<g id="Ebene_3">
	<ellipse id="XMLID_293_" class="st0" cx="55.5" cy="79.2" rx="55.5" ry="12.7"/>
</g>
<g id="Ebene_7">
	<g id="XMLID_386_">
		<ellipse id="XMLID_592_" class="st1" cx="56.3" cy="78.2" rx="28.8" ry="6.6"/>
		<g id="XMLID_527_">
			<path id="XMLID_591_" class="st2" d="M55.8,69.4H40c0,9.1,10,8.8,15.8,8.8s15.8,0.3,15.8-8.8H55.8z"/>
			<path id="XMLID_590_" class="st3" d="M71.2,72.2c0.2-0.8,0.4-1.7,0.4-2.7H55.8H44.7H40c0,0.5,0,1,0.1,1.5
				c1,7.6,10.2,7.3,15.7,7.3c0.7,0,1.5,0,2.4,0c-4.2,0-9.4-0.5-11.9-3.7c2.9,0.8,6,1.2,9.5,1.2C61.8,75.7,66.9,74.4,71.2,72.2z"/>
			<g id="XMLID_588_">
				<path id="XMLID_589_" class="st2" d="M88.7,59.8c-1.2,0-2.3-0.1-3.5-0.2c-6.7-0.9-13.5-4.1-20.4-9.6l3.6-4.4
					c6,4.9,12,7.7,17.6,8.4c6.6,0.9,13.1-1.4,16.5-5.9c3.7-4.7,3.4-11.9-0.6-15.4c-2.1-1.8-5.2-2.8-8.6-2.7
					c-2.9,0.1-6.1,1.1-9.7,2.9l-2.5-5.1c4.3-2.2,8.2-3.3,12-3.5c4.8-0.2,9.4,1.2,12.6,4c6.3,5.5,6.9,16.1,1.3,23.2
					C102.8,56.8,96,59.8,88.7,59.8z"/>
			</g>
			<g id="XMLID_585_">
				<path id="XMLID_587_" class="st3" d="M85.9,54c-5.6-0.7-11.5-3.6-17.6-8.4L64.8,50c6.9,5.5,13.7,8.8,20.4,9.6
					c0.6,0.1,1.1,0.1,1.7,0.2c1.2-1.8,2.3-3.7,3.2-5.7C88.7,54.2,87.3,54.2,85.9,54z"/>
				<path id="XMLID_586_" class="st3" d="M92.9,24.4c-3.8,0.2-7.7,1.3-12,3.5l2.5,5.1c3.6-1.8,6.8-2.8,9.7-2.9
					c1.1-0.1,2.3,0,3.3,0.2c0.2-2,0.4-3.9,0.6-5.6C95.7,24.4,94.4,24.3,92.9,24.4z"/>
			</g>
			<path id="XMLID_584_" class="st2" d="M93.4,11.2C93.4,5,76.6,0,55.8,0S18.1,5,18.1,11.2c0,0-4.3,63,37.7,63
				C97.7,74.2,93.4,11.2,93.4,11.2z"/>
			<path id="XMLID_583_" class="st12" d="M55.8,21.3c-19.2,0-34.8-6.3-34.8-6.3c0-4.8,15.6-8.7,34.8-8.7s34.8,3.9,34.8,8.7
				C90.6,14.9,75,21.3,55.8,21.3z"/>
			<g id="XMLID_578_">
				<path id="XMLID_582_" class="st3" d="M62,0.2c0.1,0,0.2,0,0.3,0C62.2,0.2,62.1,0.2,62,0.2z"/>
				<polygon id="XMLID_581_" class="st3" points="68.2,0.6 68.2,0.6 68.2,0.6 				"/>
				<path id="XMLID_580_" class="st3" d="M28.2,18.9c-6.3-2-10.1-4.7-10.1-7.6c0,0-4.3,63,37.7,63c1,0,1.9,0,2.8-0.1
					C32.1,68.7,28.5,34,28.2,18.9z"/>
				<path id="XMLID_579_" class="st3" d="M58.7,0c0.1,0,0.3,0,0.5,0C59,0,58.9,0,58.7,0z"/>
			</g>
			<path id="XMLID_577_" class="st13" d="M55.8,22.5c-15.7,0-29.1-2.9-34.8-6.9c-0.3,10.7,0.7,55.7,34.8,55.7
				c34.1,0,35-45,34.8-55.7C84.9,19.6,71.4,22.5,55.8,22.5z"/>
			<path id="XMLID_576_" class="st12" d="M55.8,22.5c-15.7,0-29.1-2.9-34.8-6.9c-0.3,10.7,0.7,55.7,34.8,55.7
				c34.1,0,35-45,34.8-55.7C84.9,19.6,71.4,22.5,55.8,22.5z"/>
			<path id="XMLID_575_" class="st14" d="M54.3,71.2c31.1-1.3,33.4-41.1,33.3-54c-2.1,1-4.7,1.9-7.6,2.6c-0.3,14.2-3.8,47.1-29.6,51
				C51.6,71,52.9,71.1,54.3,71.2z"/>
			<path id="XMLID_574_" class="st15" d="M49.6,70.7C31.2,60.2,28.4,32.1,28.2,18.9c-3-1-5.5-2.1-7.2-3.3
				C20.7,25.6,21.6,65.6,49.6,70.7z"/>
			<g id="XMLID_567_">
				<path id="XMLID_573_" class="st15" d="M60.5,11.1c-2.2,0-4-0.5-4-1.1s1.8-1.1,4-1.1c2.2,0,4,0.5,4,1.1S62.7,11.1,60.5,11.1z"/>
				<path id="XMLID_572_" class="st15" d="M77.4,14.7c-2.2,0-4-0.5-4-1.1s1.8-1.1,4-1.1c2.2,0,4,0.5,4,1.1S79.6,14.7,77.4,14.7z"/>
				<path id="XMLID_571_" class="st15" d="M48.8,11.2c-1.6,0-2.9-0.4-2.9-0.8s1.3-0.8,2.9-0.8c1.6,0,2.9,0.4,2.9,0.8
					S50.4,11.2,48.8,11.2z"/>
				<path id="XMLID_570_" class="st15" d="M58,15.3c-1.3,0-2.3-0.3-2.3-0.7s1-0.7,2.3-0.7c1.3,0,2.3,0.3,2.3,0.7S59.3,15.3,58,15.3z
					"/>
				<path id="XMLID_569_" class="st15" d="M72.5,9.9c-1.3,0-2.3-0.3-2.3-0.7s1-0.7,2.3-0.7s2.3,0.3,2.3,0.7S73.7,9.9,72.5,9.9z"/>
				<path id="XMLID_568_" class="st15" d="M69,16.2c-0.8,0-1.5-0.2-1.5-0.4c0-0.2,0.7-0.4,1.5-0.4s1.5,0.2,1.5,0.4
					S69.8,16.2,69,16.2z"/>
			</g>
			<g id="XMLID_565_">
				<path id="XMLID_566_" class="st4" d="M105.6,28.5c-3.2-2.8-7.8-4.3-12.6-4c-0.1,0-0.1,0-0.2,0c4,0.2,7.8,1.6,10.5,4
					c6.3,5.5,6.9,16.1,1.3,23.2c-3.9,4.9-10.1,7.8-16.9,8.2c0.3,0,0.7,0,1,0c7.3,0,14.1-3,18.2-8.2C112.4,44.6,111.8,34,105.6,28.5z
					"/>
			</g>
			<path id="XMLID_564_" class="st15" d="M38.3,10.9c0-1.4,1.3-2.7,3.7-3.9c-12.3,1.3-21,4.4-21,8c0,0,15.6,6.3,34.8,6.3
				c6.3,0,12.1-0.7,17.2-1.6C53.7,19.6,38.3,15.7,38.3,10.9z"/>
			<path id="XMLID_561_" class="st4" d="M55.8,0C35,0,18.1,5,18.1,11.2S35,22.5,55.8,22.5s37.7-5,37.7-11.2C93.4,5,76.6,0,55.8,0z
				 M55.8,20.1c-19.5,0-35.3-4-35.3-8.8c0-4.9,15.8-8.8,35.3-8.8S91,6.4,91,11.2S75.2,20.1,55.8,20.1z"/>
			<path id="XMLID_560_" class="st6" d="M55.8,46.9c-17.5,0-31.7-3.7-32.7-8.3c3.3,15.6,11.7,32.7,32.7,32.7
				c21,0,29.4-17.1,32.7-32.7C87.5,43.2,73.2,46.9,55.8,46.9z"/>
			<path id="XMLID_559_" class="st10" d="M84.6,42.3c-2.1,1-5,2-8.4,2.7C72.4,57.1,65,68.6,50.4,70.8c1.2,0.2,2.6,0.3,3.9,0.4
				C72.6,70.5,80.9,56.4,84.6,42.3z"/>
			<path id="XMLID_558_" class="st11" d="M23.1,38.6c0.1,0.5,0.2,1,0.4,1.6c0.1,0.3,0.1,0.6,0.2,0.9c0.1,0.4,0.2,0.8,0.3,1.2
				c0.1,0.3,0.1,0.5,0.2,0.8c0.2,0.6,0.3,1.2,0.5,1.8c0.1,0.2,0.1,0.4,0.2,0.7c0.2,0.5,0.3,1,0.5,1.5c0.1,0.2,0.1,0.3,0.2,0.5
				c0.2,0.6,0.5,1.2,0.7,1.9c0.1,0.2,0.1,0.3,0.2,0.5c0.2,0.6,0.5,1.2,0.7,1.7c0,0.1,0.1,0.1,0.1,0.2c0.3,0.6,0.6,1.3,0.9,1.9
				c0.1,0.1,0.1,0.2,0.2,0.3c0.7,1.3,1.4,2.5,2.2,3.7c0,0.1,0.1,0.2,0.2,0.2c0.8,1.2,1.7,2.4,2.6,3.5c0,0.1,0.1,0.1,0.1,0.2
				c1,1.1,2,2.1,3.1,3.1c0,0,0.1,0.1,0.1,0.1c1.1,1,2.3,1.8,3.6,2.6c0,0,0.1,0.1,0.1,0.1c1.3,0.8,2.7,1.4,4.2,2c0,0,0.1,0,0.1,0.1
				c1.5,0.6,3.1,1,4.8,1.3c0,0,0.1,0,0.1,0c-9.7-5.6-15.1-16.1-18-26.7C26.7,42.6,23.5,40.7,23.1,38.6z"/>
			<g id="XMLID_547_">
				<path id="XMLID_557_" class="st15" d="M34.1,25.3c-1.5,0-1.5,2.4,0,2.4C35.6,27.7,35.6,25.3,34.1,25.3z"/>
				<path id="XMLID_556_" class="st15" d="M42.8,38.1c-1.5,0-1.5,2.4,0,2.4C44.4,40.5,44.4,38.1,42.8,38.1z"/>
				<path id="XMLID_555_" class="st15" d="M56.2,28.5c-1.5,0-1.5,2.4,0,2.4C57.8,30.9,57.8,28.5,56.2,28.5z"/>
				<path id="XMLID_554_" class="st15" d="M63.3,39.3c-1.5,0-1.5,2.4,0,2.4C64.9,41.7,64.9,39.3,63.3,39.3z"/>
				<path id="XMLID_553_" class="st15" d="M73.9,25.4c-1.5,0-1.5,2.4,0,2.4C75.4,27.8,75.4,25.4,73.9,25.4z"/>
				<path id="XMLID_552_" class="st15" d="M67.9,30.1c-0.8,0-0.8,1.2,0,1.2C68.6,31.3,68.6,30.1,67.9,30.1z"/>
				<path id="XMLID_551_" class="st15" d="M72.7,39.3c-0.8,0-0.8,1.2,0,1.2C73.5,40.5,73.5,39.3,72.7,39.3z"/>
				<path id="XMLID_550_" class="st15" d="M54,37.2c-0.8,0-0.8,1.2,0,1.2C54.8,38.4,54.8,37.2,54,37.2z"/>
				<path id="XMLID_549_" class="st15" d="M44.8,26.3c-0.8,0-0.8,1.2,0,1.2C45.5,27.5,45.5,26.3,44.8,26.3z"/>
				<path id="XMLID_548_" class="st15" d="M34.7,36.9c-0.8,0-0.8,1.2,0,1.2C35.4,38.1,35.4,36.9,34.7,36.9z"/>
			</g>
			<g id="XMLID_536_">
				<path id="XMLID_546_" class="st11" d="M38.6,48.6c-1.5,0-1.5,2.4,0,2.4C40.1,51,40.1,48.6,38.6,48.6z"/>
				<path id="XMLID_545_" class="st11" d="M47.5,60.8c-1.5,0-1.5,2.4,0,2.4C49,63.2,49,60.8,47.5,60.8z"/>
				<path id="XMLID_544_" class="st11" d="M55,49.9c-1.5,0-1.5,2.4,0,2.4C56.6,52.3,56.6,49.9,55,49.9z"/>
				<path id="XMLID_543_" class="st11" d="M59.5,60.4c-1.5,0-1.5,2.4,0,2.4C61.1,62.8,61.1,60.4,59.5,60.4z"/>
				<path id="XMLID_542_" class="st11" d="M68.6,49.9c-1.5,0-1.5,2.4,0,2.4C70.1,52.3,70.1,49.9,68.6,49.9z"/>
				<path id="XMLID_541_" class="st11" d="M63,50.7c-0.8,0-0.8,1.2,0,1.2C63.7,51.9,63.7,50.7,63,50.7z"/>
				<path id="XMLID_540_" class="st11" d="M47.5,50c-0.8,0-0.8,1.2,0,1.2C48.3,51.2,48.3,50,47.5,50z"/>
				<path id="XMLID_539_" class="st11" d="M53.1,65.4c-0.8,0-0.8,1.2,0,1.2C53.9,66.6,53.9,65.4,53.1,65.4z"/>
				<path id="XMLID_538_" class="st11" d="M66.1,57.4c-0.8,0-0.8,1.2,0,1.2C66.9,58.6,66.9,57.4,66.1,57.4z"/>
				<path id="XMLID_537_" class="st11" d="M40.8,55.4c-0.8,0-0.8,1.2,0,1.2C41.6,56.6,41.6,55.4,40.8,55.4z"/>
			</g>
			<g id="XMLID_532_">
				<path id="XMLID_535_" class="st6" d="M76.2,54.4c-0.8,0-0.8,1.2,0,1.2C77,55.6,77,54.4,76.2,54.4z"/>
				<path id="XMLID_534_" class="st6" d="M78.2,48.1c-1.5,0-1.5,2.4,0,2.4C79.7,50.5,79.7,48.1,78.2,48.1z"/>
				<path id="XMLID_533_" class="st6" d="M72,60.3c-1.5,0-1.5,2.4,0,2.4C73.5,62.7,73.5,60.3,72,60.3z"/>
			</g>
			<g id="XMLID_528_">
				<path id="XMLID_531_" class="st12" d="M82.3,37.8c-1.5,0-1.5,2.4,0,2.4C83.8,40.2,83.8,37.8,82.3,37.8z"/>
				<path id="XMLID_530_" class="st12" d="M81.6,31.6c-0.8,0-0.8,1.2,0,1.2C82.4,32.8,82.4,31.6,81.6,31.6z"/>
				<path id="XMLID_529_" class="st12" d="M84.9,23.2c-0.8,0-0.8,1.2,0,1.2C85.6,24.4,85.6,23.2,84.9,23.2z"/>
			</g>
		</g>
	</g>
</g>
</svg>
