<?xml version="1.0" encoding="UTF-8" standalone="no"?>
<!-- Uploaded to: SVG Repo, www.svgrepo.com, Generator: SVG Repo Mixer Tools -->

<svg
   fill="#000000"
   version="1.1"
   id="Capa_1"
   width="800px"
   height="800px"
   viewBox="0 0 860.632 860.632"
   xml:space="preserve"
   sodipodi:docname="icon-coffee-edit.svg"
   inkscape:version="1.4 (86a8ad7, 2024-10-11)"
   xmlns:inkscape="http://www.inkscape.org/namespaces/inkscape"
   xmlns:sodipodi="http://sodipodi.sourceforge.net/DTD/sodipodi-0.dtd"
   xmlns="http://www.w3.org/2000/svg"
   xmlns:svg="http://www.w3.org/2000/svg"><defs
   id="defs4" /><sodipodi:namedview
   id="namedview4"
   pagecolor="#ffffff"
   bordercolor="#000000"
   borderopacity="0.25"
   inkscape:showpageshadow="2"
   inkscape:pageopacity="0.0"
   inkscape:pagecheckerboard="0"
   inkscape:deskcolor="#d1d1d1"
   inkscape:zoom="1.6042485"
   inkscape:cx="461.27517"
   inkscape:cy="450.98998"
   inkscape:window-width="3840"
   inkscape:window-height="2054"
   inkscape:window-x="-11"
   inkscape:window-y="-11"
   inkscape:window-maximized="1"
   inkscape:current-layer="Capa_1" />
<g
   style="fill:#000000"
   id="g5"
   transform="matrix(-1.7490454,-0.81559329,-0.81559329,1.7490454,686.92413,355.25627)"><g
     id="g1">
	<path
   id="path1-9"
   d="M 309.55473,48.164708 C 341.97839,103.1474 320.83177,190.81644 255.56254,256.34294 182.21095,329.98953 80.972194,347.74005 29.432162,295.9997 c -0.344446,-0.34881 -0.649115,-0.72063 -1.003488,-1.0794 7.58211,-26.95529 34.661023,-82.60713 131.194246,-116.78935 47.56309,-16.84722 81.16894,-40.21078 104.8306,-63.97532 23.53996,-23.630388 37.22675,-47.631534 45.10121,-65.990922 z m -256.029659,70.471342 3.335432,2.74104 4.240732,3.47793 4.240272,3.47891 40.818173,33.34268 c 0.53149,0.42233 1.13717,0.70217 1.65957,1.05257 16.80646,11.27289 31.7044,6.82936 36.3689,-14.49887 l 10.04021,-52.029785 1.03429,-5.416152 1.15919,-5.461225 0.80897,-4.264647 -3.53033,-9.464374 -16.37372,-45.417708 c 50.15986,-28.6076575 90.43081,-34.6093848 130.23435,-16.072265 10.18428,4.742973 19.4519,11.130643 27.50581,19.214759 0.0605,0.06778 0.11047,0.144949 0.19289,0.21368 C 284.84926,59.758943 251.77128,124.09865 152.98653,159.07329 62.494872,191.12865 27.497435,241.83654 13.955671,275.46152 -14.808182,224.39533 -10.282613,154.47329 43.729844,91.662758 l 6.306674,17.493572 z"
   sodipodi:nodetypes="ccccccccccccscccccccsccccccc"
   style="stroke-width:0.996949" />
</g></g>
<g
   id="g9"
   transform="matrix(0.61040922,0,0,0.61040922,335.29429,2.727545)"
   style="display:inline">
	<g
   id="g8">
		<path
   id="path6"
   style="stroke:none;stroke-width:17.6241;stroke-dasharray:none;stroke-opacity:1"
   d="M 263.48554,784.21601 702.68308,345.01847 515.58215,157.91753 76.384606,597.11507 53.483631,619.51693 50.082735,632.8176 46.082895,650.01485 41.783584,666.91606 0.78350576,829.41557 c -4.09999996,16.2 8.49886204,31.10031 24.09886224,31.10031 2,0 4.099407,-0.29859 6.199407,-0.79859 l 162.499515,-41.00008 16.90121,-4.30276 16.90122,-4.29931 13.30067,-3.39745 z"
   sodipodi:nodetypes="cccccccccscccccc" />
		<path
   d="m 853.282,159.216 -151.8,-151.8 c -4.9,-4.9 -11.3,-7.3 -17.7,-7.3 -6.4,0 -12.8,2.4 -17.7,7.3 l -129.3,129.3 187.2,187.2 129.3,-129.3 c 9.8,-9.8 9.8,-25.6 0,-35.4 z"
   id="path7"
   style="stroke:none" />
		
	</g>
</g></svg>
