<?xml version="1.0" encoding="iso-8859-1"?>
<!-- Uploaded to: SVG Repo, www.svgrepo.com, Generator: SVG Repo Mixer Tools -->
<!DOCTYPE svg PUBLIC "-//W3C//DTD SVG 1.1//EN" "http://www.w3.org/Graphics/SVG/1.1/DTD/svg11.dtd">
<svg fill="#000000" version="1.1" id="Capa_1" xmlns="http://www.w3.org/2000/svg" xmlns:xlink="http://www.w3.org/1999/xlink" 
	 width="800px" height="800px" viewBox="0 0 326.05 326.05"
	 xml:space="preserve">
<g>
	<path d="M14.257,275.602C-17.052,220.391,4.253,133.798,69.023,69.01c73.553-73.543,175.256-91.076,227.182-39.16
		c0.061,0.068,0.112,0.145,0.195,0.214c-10.392,30.235-43.486,94.567-142.686,129.348C62.842,191.29,27.788,241.972,14.257,275.602z
		 M310.81,48.75c-7.871,18.361-21.57,42.356-45.173,65.957c-23.725,23.735-57.445,47.046-105.208,63.8
		C63.49,212.5,36.405,268.149,28.848,295.116c0.357,0.36,0.664,0.733,1.011,1.083c51.921,51.918,153.628,34.386,227.176-39.169
		C322.479,191.585,343.526,103.869,310.81,48.75z"/>
</g>
</svg>