<?xml version="1.0" encoding="utf-8"?>
<!-- Generator: Adobe Illustrator 19.0.0, SVG Export Plug-In . SVG Version: 6.00 Build 0)  -->
<svg version="1.1" xmlns="http://www.w3.org/2000/svg" xmlns:xlink="http://www.w3.org/1999/xlink" x="0px" y="0px"
	 viewBox="0 0 110.9 91.9" style="enable-background:new 0 0 110.9 91.9;" xml:space="preserve">
<style type="text/css">
	.st0{opacity:0.75;fill:#C6978E;enable-background:new    ;}
	.st1{opacity:0.75;fill:#311C1C;enable-background:new    ;}
	.st2{fill:#EEEDED;}
	.st3{fill:#DADADA;}
	.st4{fill:#FFFFFF;}
	.st5{fill:#C7C6C7;}
	.st6{fill:#62381F;}
	.st7{fill:#F9E9D2;}
	.st8{fill:#F1DABE;}
	.st9{fill:#FFF4E7;}
	.st10{fill:#724124;}
	.st11{fill:#522E1A;}
	.st12{fill:#814929;}
	.st13{fill:#D1E7F0;}
	.st14{fill:#935333;}
	.st15{fill:#6C3B23;}
	.st16{fill:#FFF9F0;}
	.st17{fill:#F4E7DB;}
	.st18{fill:#FFF6EC;}
	.st19{fill:#432717;}
	.st20{fill:#E6F4F9;}
	.st21{fill:#BCDADF;}
	.st22{opacity:0.25;fill:#D1E7F0;enable-background:new    ;}
</style>
<g id="Ebene_3">
	<ellipse id="XMLID_293_" class="st0" cx="55.5" cy="79.2" rx="55.5" ry="12.7"/>
</g>
<g id="Ebene_1">
	<g id="XMLID_1_">
		<ellipse id="XMLID_40_" class="st1" cx="55.9" cy="78.2" rx="28.8" ry="6.6"/>
		<g id="XMLID_43_">
			<path id="XMLID_39_" class="st2" d="M55.9,69.4H40.1c0,9.1,10,8.8,15.8,8.8c5.8,0,15.8,0.3,15.8-8.8H55.9z"/>
			<path id="XMLID_38_" class="st3" d="M71.3,72.2c0.2-0.8,0.4-1.7,0.4-2.7H55.9H44.8h-4.7c0,0.5,0,1,0.1,1.5
				c1,7.6,10.2,7.3,15.7,7.3c0.7,0,1.5,0,2.4,0c-4.2,0-9.4-0.5-11.9-3.7c2.9,0.8,6,1.2,9.5,1.2C62,75.7,67,74.4,71.3,72.2z"/>
			<g id="XMLID_86_">
				<path id="XMLID_37_" class="st2" d="M88.8,59.8c-1.2,0-2.3-0.1-3.5-0.2c-6.7-0.9-13.5-4.1-20.4-9.6l3.6-4.4
					c6,4.9,12,7.7,17.6,8.4c6.6,0.9,13.1-1.4,16.5-5.9c3.7-4.7,3.4-11.9-0.6-15.4c-2.1-1.8-5.2-2.8-8.6-2.7
					c-2.9,0.1-6.1,1.1-9.7,2.9l-2.5-5.1c4.3-2.2,8.2-3.3,12-3.5c4.8-0.2,9.4,1.2,12.6,4.1c6.3,5.5,6.9,16.1,1.3,23.2
					C102.9,56.8,96.2,59.8,88.8,59.8z"/>
			</g>
			<g id="XMLID_83_">
				<path id="XMLID_36_" class="st3" d="M86,54c-5.6-0.7-11.5-3.6-17.6-8.4L64.9,50c6.9,5.5,13.7,8.8,20.4,9.6
					c0.6,0.1,1.1,0.1,1.7,0.2c1.2-1.8,2.3-3.7,3.2-5.7C88.8,54.2,87.4,54.2,86,54z"/>
				<path id="XMLID_35_" class="st3" d="M93.1,24.4c-3.8,0.2-7.7,1.3-12,3.5l2.5,5.1c3.6-1.8,6.8-2.8,9.7-2.9c1.1-0.1,2.3,0,3.3,0.2
					c0.2-2,0.4-3.9,0.6-5.6C95.9,24.4,94.5,24.3,93.1,24.4z"/>
			</g>
			<path id="XMLID_34_" class="st2" d="M93.6,11.2C93.6,5,76.7,0,55.9,0S18.2,5,18.2,11.2c0,0-4.3,63,37.7,63S93.6,11.2,93.6,11.2z"
				/>
			<path id="XMLID_79_" class="st4" d="M55.9,0C35.1,0,18.2,5,18.2,11.2s16.9,11.2,37.7,11.2s37.7-5,37.7-11.2S76.7,0,55.9,0z
				 M55.9,20.1c-19.5,0-35.3-4-35.3-8.8s15.8-8.8,35.3-8.8s35.3,4,35.3,8.8S75.4,20.1,55.9,20.1z"/>
			<g id="XMLID_74_">
				<path id="XMLID_31_" class="st3" d="M62.2,0.2c0.1,0,0.2,0,0.3,0C62.4,0.2,62.3,0.2,62.2,0.2z"/>
				<path id="XMLID_30_" class="st3" d="M68.3,0.6L68.3,0.6L68.3,0.6z"/>
				<path id="XMLID_29_" class="st3" d="M28.3,18.9c-6.3-2-10.1-4.7-10.1-7.6c0,0-4.3,63,37.7,63c1,0,1.9,0,2.8-0.1
					C32.2,68.7,28.6,34,28.3,18.9z"/>
				<path id="XMLID_28_" class="st3" d="M58.9,0c0.2,0,0.3,0,0.5,0C59.2,0,59,0,58.9,0z"/>
			</g>
			<path id="XMLID_27_" class="st3" d="M55.9,22.5c-15.7,0-29.1-2.9-34.8-6.9c-0.3,10.7,0.7,55.7,34.8,55.7c34.1,0,35-45,34.8-55.7
				C85,19.6,71.6,22.5,55.9,22.5z"/>
			<path id="XMLID_26_" class="st2" d="M54.4,71.2c31.1-1.3,33.4-41.1,33.3-54c-2.1,1-4.7,1.9-7.6,2.6c-0.3,14.2-3.8,47.1-29.6,51
				C51.8,71,53.1,71.1,54.4,71.2z"/>
			<path id="XMLID_25_" class="st5" d="M49.7,70.7C31.4,60.2,28.6,32.1,28.3,18.9c-3-1-5.5-2.1-7.2-3.3
				C20.9,25.6,21.7,65.6,49.7,70.7z"/>
			<path id="XMLID_24_" class="st6" d="M25.2,46c4.3,13.1,13.1,25.3,30.7,25.3S82.3,59.2,86.6,46H25.2z"/>
			<path id="XMLID_23_" class="st10" d="M83.6,46H76c-3.9,11.8-11.3,22.7-25.5,24.8c1.2,0.2,2.6,0.3,3.9,0.4
				C71.1,70.5,79.5,58.8,83.6,46z"/>
			<path id="XMLID_22_" class="st11" d="M25.3,46.3c0.2,0.6,0.4,1.2,0.6,1.8c0.1,0.2,0.2,0.5,0.3,0.7c0.2,0.4,0.3,0.8,0.5,1.2
				c0.2,0.4,0.3,0.7,0.5,1.1c0.1,0.3,0.2,0.6,0.4,0.8c0.2,0.5,0.4,1,0.7,1.4c0.1,0.2,0.2,0.5,0.3,0.7c0.3,0.5,0.5,1,0.8,1.5
				c0.1,0.2,0.2,0.3,0.3,0.5c0.3,0.5,0.6,1,0.9,1.5c0.1,0.1,0.1,0.2,0.2,0.3c0.4,0.5,0.7,1.1,1.1,1.6c0.1,0.1,0.1,0.2,0.2,0.3
				c0.4,0.5,0.8,1,1.3,1.6c0.1,0.1,0.1,0.2,0.2,0.3c0.4,0.5,0.9,1,1.4,1.5c0.1,0.1,0.1,0.1,0.2,0.2c0.5,0.5,1,1,1.6,1.5
				c0,0,0,0,0.1,0c1.7,1.5,3.7,2.7,5.8,3.8c0,0,0,0,0.1,0c0.7,0.3,1.4,0.6,2.2,0.9c0,0,0,0,0.1,0c1.5,0.6,3.2,1,4.9,1.3
				C40.6,65.5,35.3,55.9,32.3,46h-7.1C25.2,46.1,25.2,46.2,25.3,46.3z"/>
			<path id="XMLID_21_" class="st6" d="M55.9,54.4c-17,0-30.7-4-30.7-8.8s13.8-8.8,30.7-8.8s30.7,4,30.7,8.8S72.9,54.4,55.9,54.4z"
				/>
			<g id="XMLID_61_">
				<path id="XMLID_20_" class="st11" d="M60.6,41.5c-3.1,0-5.6-0.7-5.6-1.6s2.5-1.6,5.6-1.6c3.1,0,5.6,0.7,5.6,1.6
					C66.2,40.8,63.7,41.5,60.6,41.5z"/>
				<path id="XMLID_19_" class="st11" d="M47,41.4c-2.2,0-4.1-0.5-4.1-1.2s1.8-1.2,4.1-1.2s4.1,0.5,4.1,1.2
					C51,40.9,49.2,41.4,47,41.4z"/>
				<path id="XMLID_18_" class="st11" d="M55,46c-1.8,0-3.2-0.4-3.2-0.9c0-0.5,1.4-0.9,3.2-0.9c1.8,0,3.2,0.4,3.2,0.9
					C58.2,45.6,56.8,46,55,46z"/>
				<path id="XMLID_17_" class="st11" d="M71.7,43.6c-1.8,0-3.2-0.4-3.2-0.9c0-0.5,1.4-0.9,3.2-0.9c1.8,0,3.2,0.4,3.2,0.9
					S73.5,43.6,71.7,43.6z"/>
				<path id="XMLID_16_" class="st11" d="M65.7,46.8c-1.2,0-2.1-0.3-2.1-0.6c0-0.3,1-0.6,2.1-0.6c1.2,0,2.1,0.3,2.1,0.6
					C67.8,46.5,66.9,46.8,65.7,46.8z"/>
			</g>
			<path id="XMLID_15_" class="st10" d="M73.3,52.8c3.6-0.7,6.6-1.6,8.8-2.7c1-2.5,1.9-5.1,2.6-7.7c-1.5-1.2-3.9-2.2-6.9-3.1
				C76.8,43.9,75.4,48.6,73.3,52.8z"/>
			<path id="XMLID_14_" class="st11" d="M64.2,48.9c-17,0-30.7-4-30.7-8.8c0-0.2,0-0.3,0.1-0.5c-5.2,1.6-8.3,3.7-8.3,6
				c0,4.9,13.8,8.8,30.7,8.8c16.4,0,29.7-3.7,30.7-8.3C81,47.8,73,48.9,64.2,48.9z"/>
			<path id="XMLID_13_" class="st6" d="M73.3,52.8c3.6-0.7,6.6-1.6,8.8-2.7c0.4-1.1,0.9-2.2,1.2-3.3c-2.4,0.6-5.2,1-8.1,1.3
				C74.6,49.8,74,51.4,73.3,52.8z"/>
			<path id="XMLID_12_" class="st19" d="M30.8,40.4c-3.6,1.4-5.7,3.2-5.7,5.1c0,0.3,0.1,0.6,0.1,0.8c0,0,0,0.1,0,0.1
				c0.8,2.1,4.1,4,9.1,5.4C32.9,48.2,31.7,44.3,30.8,40.4z"/>
			<g id="XMLID_53_">
				<path id="XMLID_11_" class="st6" d="M72.2,59.5c-1.5,0-1.5,2.4,0,2.4C73.7,61.9,73.7,59.5,72.2,59.5z"/>
				<path id="XMLID_10_" class="st6" d="M76.4,54.7c-0.8,0-0.8,1.2,0,1.2C77.2,55.9,77.2,54.7,76.4,54.7z"/>
				<path id="XMLID_9_" class="st6" d="M67.5,65.3c-0.8,0-0.8,1.2,0,1.2C68.3,66.5,68.3,65.3,67.5,65.3z"/>
			</g>
			<g id="XMLID_46_">
				<path id="XMLID_8_" class="st11" d="M41.7,56c-1.5,0-1.5,2.4,0,2.4C43.2,58.4,43.2,56,41.7,56z"/>
				<path id="XMLID_7_" class="st11" d="M52.4,64c-1.5,0-1.5,2.4,0,2.4C54,66.4,54,64,52.4,64z"/>
				<path id="XMLID_6_" class="st11" d="M64.7,55.8c-1.5,0-1.5,2.4,0,2.4C66.2,58.2,66.2,55.8,64.7,55.8z"/>
				<path id="XMLID_5_" class="st11" d="M59.2,62.1c-0.8,0-0.8,1.2,0,1.2C60,63.3,60,62.1,59.2,62.1z"/>
				<path id="XMLID_4_" class="st11" d="M50.9,56.2c-0.8,0-0.8,1.2,0,1.2C51.7,57.4,51.7,56.2,50.9,56.2z"/>
				<path id="XMLID_3_" class="st11" d="M45.4,61.9c-0.8,0-0.8,1.2,0,1.2C46.1,63.1,46.1,61.9,45.4,61.9z"/>
			</g>
			<g id="XMLID_44_">
				<path id="XMLID_2_" class="st4" d="M105.7,28.5c-3.2-2.8-7.8-4.3-12.6-4.1c-0.1,0-0.1,0-0.2,0c4,0.2,7.8,1.6,10.5,4
					c6.3,5.5,6.9,16.1,1.3,23.2c-3.9,4.9-10.1,7.8-16.9,8.2c0.3,0,0.7,0,1,0c7.3,0,14.1-3,18.2-8.2C112.6,44.6,112,34,105.7,28.5z"
					/>
			</g>
		</g>
	</g>
</g>
</svg>
