<?xml version="1.0" encoding="utf-8"?>
<!-- Generator: Adobe Illustrator 19.0.0, SVG Export Plug-In . SVG Version: 6.00 Build 0)  -->
<svg version="1.1" xmlns="http://www.w3.org/2000/svg" xmlns:xlink="http://www.w3.org/1999/xlink" x="0px" y="0px"
	 viewBox="0 0 110.9 91.9" style="enable-background:new 0 0 110.9 91.9;" xml:space="preserve">
<style type="text/css">
	.st0{opacity:0.75;fill:#C6978E;enable-background:new    ;}
	.st1{opacity:0.75;fill:#311C1C;enable-background:new    ;}
	.st2{fill:#EEEDED;}
	.st3{fill:#DADADA;}
	.st4{fill:#FFFFFF;}
	.st5{fill:#C7C6C7;}
	.st6{fill:#62381F;}
	.st7{fill:#F9E9D2;}
	.st8{fill:#F1DABE;}
	.st9{fill:#FFF4E7;}
	.st10{fill:#724124;}
	.st11{fill:#522E1A;}
	.st12{fill:#814929;}
	.st13{fill:#D1E7F0;}
	.st14{fill:#935333;}
	.st15{fill:#6C3B23;}
	.st16{fill:#FFF9F0;}
	.st17{fill:#F4E7DB;}
	.st18{fill:#FFF6EC;}
	.st19{fill:#432717;}
	.st20{fill:#E6F4F9;}
	.st21{fill:#BCDADF;}
	.st22{opacity:0.25;fill:#D1E7F0;enable-background:new    ;}
</style>
<g id="Ebene_3">
	<ellipse id="XMLID_293_" class="st0" cx="55.5" cy="79.2" rx="55.5" ry="12.7"/>
</g>
<g id="Ebene_2">
	<ellipse id="XMLID_176_" class="st1" cx="56" cy="78.2" rx="28.8" ry="6.6"/>
	<g id="XMLID_116_">
		<path id="XMLID_175_" class="st2" d="M55.3,69.4H39.5c0,9.1,10,8.8,15.8,8.8c5.8,0,15.8,0.3,15.8-8.8H55.3z"/>
		<path id="XMLID_174_" class="st3" d="M70.7,72.2c0.2-0.8,0.4-1.7,0.4-2.7H55.3H44.2h-4.7c0,0.5,0,1,0.1,1.5
			c1,7.6,10.2,7.3,15.7,7.3c0.7,0,1.5,0,2.4,0c-4.2,0-9.4-0.5-11.9-3.7c2.9,0.8,6,1.2,9.5,1.2C61.3,75.7,66.4,74.4,70.7,72.2z"/>
		<g id="XMLID_172_">
			<path id="XMLID_173_" class="st2" d="M88.2,59.8c-1.2,0-2.3-0.1-3.5-0.2C78,58.7,71.1,55.5,64.3,50l3.6-4.4
				c6,4.9,12,7.7,17.6,8.4c6.6,0.9,13.1-1.4,16.5-5.9c3.7-4.7,3.4-11.9-0.6-15.4c-2.1-1.8-5.2-2.8-8.6-2.7c-2.9,0.1-6.1,1.1-9.7,2.9
				l-2.5-5.1c4.3-2.2,8.2-3.3,12-3.5c4.8-0.2,9.4,1.2,12.6,4.1c6.3,5.5,6.9,16.1,1.3,23.2C102.3,56.8,95.5,59.8,88.2,59.8z"/>
		</g>
		<g id="XMLID_169_">
			<path id="XMLID_171_" class="st3" d="M85.4,54c-5.6-0.7-11.5-3.6-17.6-8.4L64.3,50c6.9,5.5,13.7,8.8,20.4,9.6
				c0.6,0.1,1.1,0.1,1.7,0.2c1.2-1.8,2.3-3.7,3.2-5.7C88.2,54.2,86.8,54.2,85.4,54z"/>
			<path id="XMLID_170_" class="st3" d="M92.4,24.4c-3.8,0.2-7.7,1.3-12,3.5L83,33c3.6-1.8,6.8-2.8,9.7-2.9c1.1-0.1,2.3,0,3.3,0.2
				c0.2-2,0.4-3.9,0.6-5.6C95.2,24.4,93.9,24.3,92.4,24.4z"/>
		</g>
		<path id="XMLID_168_" class="st2" d="M92.9,11.2C92.9,5,76.1,0,55.3,0C34.5,0,17.6,5,17.6,11.2c0,0-4.3,63,37.7,63
			S92.9,11.2,92.9,11.2z"/>
		<path id="XMLID_167_" class="st13" d="M55.3,21.3c-19.2,0-34.8-6.3-34.8-6.3c0-4.8,15.6-8.7,34.8-8.7c19.2,0,34.8,3.9,34.8,8.7
			C90.1,14.9,74.5,21.3,55.3,21.3z"/>
		<g id="XMLID_162_">
			<path id="XMLID_166_" class="st3" d="M61.5,0.2c0.1,0,0.2,0,0.3,0C61.7,0.2,61.6,0.2,61.5,0.2z"/>
			<path id="XMLID_165_" class="st3" d="M67.7,0.6L67.7,0.6L67.7,0.6z"/>
			<path id="XMLID_164_" class="st3" d="M27.7,18.9c-6.3-2-10.1-4.7-10.1-7.6c0,0-4.3,63,37.7,63c1,0,1.9,0,2.8-0.1
				C31.6,68.7,28,34,27.7,18.9z"/>
			<path id="XMLID_163_" class="st3" d="M58.2,0c0.1,0,0.3,0,0.5,0C58.5,0,58.4,0,58.2,0z"/>
		</g>
		<path id="XMLID_161_" class="st13" d="M55.3,22.5c-15.7,0-29.1-2.9-34.8-6.9c-0.3,10.7,0.7,55.7,34.8,55.7c34.1,0,35-45,34.8-55.7
			C84.4,19.6,70.9,22.5,55.3,22.5z"/>
		<path id="XMLID_160_" class="st13" d="M55.3,22.5c-15.7,0-29.1-2.9-34.8-6.9c-0.3,10.7,0.7,55.7,34.8,55.7c34.1,0,35-45,34.8-55.7
			C84.4,19.6,70.9,22.5,55.3,22.5z"/>
		<path id="XMLID_159_" class="st20" d="M53.8,71.2c31.1-1.3,33.4-41.1,33.3-54c-2.1,1-4.7,1.9-7.6,2.6c-0.3,14.2-3.8,47.1-29.6,51
			C51.1,71,52.4,71.1,53.8,71.2z"/>
		<path id="XMLID_158_" class="st21" d="M49.1,70.7C30.7,60.2,27.9,32.1,27.7,18.9c-3-1-5.5-2.1-7.2-3.3
			C20.2,25.6,21.1,65.6,49.1,70.7z"/>
		<path id="XMLID_157_" class="st6" d="M24.5,46c4.3,13.1,13.1,25.3,30.7,25.3S81.7,59.2,86,46H24.5z"/>
		<path id="XMLID_156_" class="st10" d="M83,46h-7.6c-3.9,11.8-11.3,22.7-25.5,24.8c1.2,0.2,2.6,0.3,3.9,0.4
			C70.4,70.5,78.8,58.8,83,46z"/>
		<path id="XMLID_155_" class="st11" d="M24.6,46.3c0.2,0.6,0.4,1.2,0.6,1.8c0.1,0.2,0.2,0.5,0.3,0.7c0.2,0.4,0.3,0.8,0.5,1.2
			c0.2,0.4,0.3,0.7,0.5,1.1c0.1,0.3,0.2,0.6,0.4,0.8c0.2,0.5,0.5,1,0.7,1.4c0.1,0.2,0.2,0.5,0.3,0.7c0.3,0.5,0.5,1,0.8,1.5
			c0.1,0.2,0.2,0.3,0.3,0.5c0.3,0.5,0.6,1,0.9,1.5c0.1,0.1,0.1,0.2,0.2,0.3c0.4,0.5,0.7,1.1,1.1,1.6c0.1,0.1,0.1,0.2,0.2,0.3
			c0.4,0.5,0.8,1,1.3,1.6c0.1,0.1,0.1,0.2,0.2,0.3c0.4,0.5,0.9,1,1.4,1.5c0.1,0.1,0.1,0.1,0.2,0.2c0.5,0.5,1,1,1.6,1.5
			c0,0,0,0,0.1,0c1.7,1.5,3.7,2.7,5.8,3.8c0,0,0,0,0.1,0c0.7,0.3,1.4,0.6,2.2,0.9c0,0,0,0,0.1,0c1.5,0.6,3.2,1,4.9,1.3
			C40,65.5,34.7,55.9,31.7,46h-7.1C24.6,46.1,24.6,46.2,24.6,46.3z"/>
		<path id="XMLID_154_" class="st6" d="M55.3,54.4c-17,0-30.7-4-30.7-8.8s13.8-8.8,30.7-8.8s30.7,4,30.7,8.8S72.2,54.4,55.3,54.4z"
			/>
		<g id="XMLID_148_">
			<path id="XMLID_153_" class="st11" d="M60,41.5c-3.1,0-5.6-0.7-5.6-1.6s2.5-1.6,5.6-1.6c3.1,0,5.6,0.7,5.6,1.6
				C65.6,40.8,63.1,41.5,60,41.5z"/>
			<path id="XMLID_152_" class="st11" d="M46.3,41.4c-2.2,0-4-0.5-4-1.2s1.8-1.2,4-1.2s4,0.5,4,1.2C50.4,40.9,48.5,41.4,46.3,41.4z"
				/>
			<path id="XMLID_151_" class="st11" d="M54.4,46c-1.8,0-3.2-0.4-3.2-0.9c0-0.5,1.4-0.9,3.2-0.9s3.2,0.4,3.2,0.9
				C57.5,45.6,56.1,46,54.4,46z"/>
			<path id="XMLID_150_" class="st11" d="M71.1,43.6c-1.8,0-3.2-0.4-3.2-0.9c0-0.5,1.4-0.9,3.2-0.9s3.2,0.4,3.2,0.9
				C74.2,43.2,72.8,43.6,71.1,43.6z"/>
			<path id="XMLID_149_" class="st11" d="M65.1,46.8c-1.2,0-2.1-0.3-2.1-0.6c0-0.3,1-0.6,2.1-0.6s2.1,0.3,2.1,0.6
				C67.2,46.5,66.3,46.8,65.1,46.8z"/>
		</g>
		<g id="XMLID_141_">
			<path id="XMLID_147_" class="st21" d="M60,11.1c-2.2,0-4-0.5-4-1.1s1.8-1.1,4-1.1c2.2,0,4,0.5,4,1.1S62.2,11.1,60,11.1z"/>
			<path id="XMLID_146_" class="st21" d="M76.9,14.7c-2.2,0-4-0.5-4-1.1s1.8-1.1,4-1.1s4,0.5,4,1.1C80.9,14.1,79.1,14.7,76.9,14.7z"
				/>
			<path id="XMLID_145_" class="st21" d="M48.3,11.2c-1.6,0-2.9-0.4-2.9-0.8s1.3-0.8,2.9-0.8c1.6,0,2.9,0.4,2.9,0.8
				C51.2,10.9,49.9,11.2,48.3,11.2z"/>
			<path id="XMLID_144_" class="st21" d="M57.5,15.3c-1.3,0-2.3-0.3-2.3-0.6s1-0.7,2.3-0.7s2.3,0.3,2.3,0.7
				C59.8,15,58.8,15.3,57.5,15.3z"/>
			<path id="XMLID_143_" class="st21" d="M72,9.9c-1.3,0-2.3-0.3-2.3-0.7s1-0.7,2.3-0.7c1.3,0,2.3,0.3,2.3,0.7S73.2,9.9,72,9.9z"/>
			<path id="XMLID_142_" class="st21" d="M68.5,16.2c-0.8,0-1.5-0.2-1.5-0.4s0.7-0.4,1.5-0.4s1.5,0.2,1.5,0.4
				C70,16,69.3,16.2,68.5,16.2z"/>
		</g>
		<path id="XMLID_140_" class="st10" d="M72.6,52.8c3.6-0.7,6.6-1.6,8.8-2.7c1-2.5,1.9-5.1,2.6-7.7c-1.5-1.2-3.9-2.2-6.9-3.1
			C76.2,43.9,74.7,48.6,72.6,52.8z"/>
		<path id="XMLID_139_" class="st11" d="M63.5,48.9c-17,0-30.7-4-30.7-8.8c0-0.2,0-0.3,0.1-0.5c-5.2,1.6-8.3,3.7-8.3,6
			c0,4.9,13.8,8.8,30.7,8.8c16.4,0,29.7-3.7,30.7-8.3C80.3,47.8,72.4,48.9,63.5,48.9z"/>
		<path id="XMLID_138_" class="st6" d="M72.6,52.8c3.6-0.7,6.6-1.6,8.8-2.7c0.4-1.1,0.9-2.2,1.2-3.3c-2.4,0.6-5.2,1-8.1,1.3
			C74,49.8,73.3,51.4,72.6,52.8z"/>
		<path id="XMLID_137_" class="st19" d="M30.2,40.4c-3.6,1.4-5.7,3.2-5.7,5.1c0,0.3,0.1,0.6,0.1,0.8c0,0,0,0.1,0,0.1
			c0.8,2.1,4.1,4,9.1,5.4C32.2,48.2,31.1,44.3,30.2,40.4z"/>
		<g id="XMLID_133_">
			<path id="XMLID_136_" class="st6" d="M71.5,59.5c-1.5,0-1.5,2.4,0,2.4C73.1,61.9,73.1,59.5,71.5,59.5z"/>
			<path id="XMLID_135_" class="st6" d="M75.8,54.7c-0.8,0-0.8,1.2,0,1.2C76.6,55.9,76.6,54.7,75.8,54.7z"/>
			<path id="XMLID_134_" class="st6" d="M66.9,65.3c-0.8,0-0.8,1.2,0,1.2C67.6,66.5,67.6,65.3,66.9,65.3z"/>
		</g>
		<g id="XMLID_126_">
			<path id="XMLID_132_" class="st11" d="M41,56c-1.5,0-1.5,2.4,0,2.4C42.6,58.4,42.6,56,41,56z"/>
			<path id="XMLID_131_" class="st11" d="M51.8,64c-1.5,0-1.5,2.4,0,2.4C53.3,66.4,53.4,64,51.8,64z"/>
			<path id="XMLID_130_" class="st11" d="M64,55.8c-1.5,0-1.5,2.4,0,2.4C65.6,58.2,65.6,55.8,64,55.8z"/>
			<path id="XMLID_129_" class="st11" d="M58.6,62.1c-0.8,0-0.8,1.2,0,1.2C59.4,63.3,59.4,62.1,58.6,62.1z"/>
			<path id="XMLID_128_" class="st11" d="M50.3,56.2c-0.8,0-0.8,1.2,0,1.2C51,57.4,51,56.2,50.3,56.2z"/>
			<path id="XMLID_127_" class="st11" d="M44.7,61.9c-0.8,0-0.8,1.2,0,1.2C45.5,63.1,45.5,61.9,44.7,61.9z"/>
		</g>
		<g id="XMLID_124_">
			<path id="XMLID_125_" class="st4" d="M105.1,28.5c-3.2-2.8-7.8-4.3-12.6-4.1c-0.1,0-0.1,0-0.2,0c4,0.2,7.8,1.6,10.5,4
				c6.3,5.5,6.9,16.1,1.3,23.2c-3.9,4.9-10.1,7.8-16.9,8.2c0.3,0,0.7,0,1,0c7.3,0,14.1-3,18.2-8.2C111.9,44.6,111.3,34,105.1,28.5z"
				/>
		</g>
		<path id="XMLID_121_" class="st22" d="M24.7,46.5c1.7,4.4,14.7,7.9,30.6,7.9s28.9-3.4,30.6-7.9c-0.8,2.4-1.7,4.7-2.9,6.9
			c7-13.8,7.2-31.7,7.1-37.9c-5.7,4.1-19.1,6.9-34.8,6.9c-15.7,0-29.1-2.9-34.8-6.9c-0.1,5.2,0.1,18.3,4.1,30.5h0
			c0,0.1,0.1,0.3,0.1,0.4c0-0.1-0.1-0.2-0.1-0.4 M86,46L86,46c0,0.1-0.1,0.3-0.1,0.4C85.9,46.3,85.9,46.1,86,46z"/>
		<path id="XMLID_120_" class="st21" d="M37.8,10.9c0-1.4,1.3-2.7,3.7-3.9c-12.3,1.3-21,4.4-21,8c0,0,15.6,6.3,34.8,6.3
			c6.3,0,12.1-0.7,17.2-1.6C53.2,19.6,37.8,15.7,37.8,10.9z"/>
		<path id="XMLID_117_" class="st4" d="M55.3,0C34.5,0,17.6,5,17.6,11.2s16.9,11.2,37.7,11.2c20.8,0,37.7-5,37.7-11.2S76.1,0,55.3,0
			z M55.3,20.1c-19.5,0-35.3-4-35.3-8.8s15.8-8.8,35.3-8.8s35.3,4,35.3,8.8S74.7,20.1,55.3,20.1z"/>
	</g>
</g>
</svg>
