<?xml version="1.0" encoding="utf-8"?>
<!-- Generator: Adobe Illustrator 19.0.0, SVG Export Plug-In . SVG Version: 6.00 Build 0)  -->
<svg version="1.1" xmlns="http://www.w3.org/2000/svg" xmlns:xlink="http://www.w3.org/1999/xlink" x="0px" y="0px"
	 viewBox="0 0 110.9 91.9" style="enable-background:new 0 0 110.9 91.9;" xml:space="preserve">
<style type="text/css">
	.st0{opacity:0.75;fill:#C6978E;enable-background:new    ;}
	.st1{opacity:0.75;fill:#311C1C;enable-background:new    ;}
	.st2{fill:#EEEDED;}
	.st3{fill:#DADADA;}
	.st4{fill:#FFFFFF;}
	.st5{fill:#C7C6C7;}
	.st6{fill:#62381F;}
	.st7{fill:#F9E9D2;}
	.st8{fill:#F1DABE;}
	.st9{fill:#FFF4E7;}
	.st10{fill:#724124;}
	.st11{fill:#522E1A;}
	.st12{fill:#814929;}
	.st13{fill:#D1E7F0;}
	.st14{fill:#935333;}
	.st15{fill:#6C3B23;}
	.st16{fill:#FFF9F0;}
	.st17{fill:#F4E7DB;}
	.st18{fill:#FFF6EC;}
	.st19{fill:#432717;}
	.st20{fill:#E6F4F9;}
	.st21{fill:#BCDADF;}
	.st22{opacity:0.25;fill:#D1E7F0;enable-background:new    ;}
</style>
<g id="Ebene_3">
	<ellipse id="XMLID_293_" class="st0" cx="55.5" cy="79.2" rx="55.5" ry="12.7"/>
</g>
<g id="Ebene_6">
	<ellipse id="XMLID_526_" class="st1" cx="56.1" cy="78.5" rx="28.8" ry="6.6"/>
	<g id="XMLID_461_">
		<path id="XMLID_525_" class="st2" d="M55.5,69.7H39.7c0,9.1,10,8.8,15.8,8.8s15.8,0.3,15.8-8.8H55.5z"/>
		<path id="XMLID_524_" class="st3" d="M70.9,72.4c0.2-0.8,0.4-1.7,0.4-2.7H55.5H44.5h-4.7c0,0.5,0,1,0.1,1.5
			c1,7.6,10.2,7.3,15.7,7.3c0.7,0,1.5,0,2.4,0c-4.2,0-9.4-0.5-11.9-3.7c2.9,0.8,6,1.2,9.5,1.2C61.6,75.9,66.7,74.6,70.9,72.4z"/>
		<g id="XMLID_522_">
			<path id="XMLID_523_" class="st2" d="M88.5,60.1c-1.2,0-2.3-0.1-3.5-0.2c-6.7-0.9-13.5-4.1-20.4-9.6l3.6-4.4
				c6,4.9,12,7.7,17.6,8.4c6.6,0.9,13.1-1.4,16.5-5.9c3.7-4.7,3.4-11.9-0.6-15.4c-2.1-1.8-5.2-2.8-8.6-2.7c-2.9,0.1-6.1,1.1-9.7,2.9
				l-2.5-5.1c4.3-2.2,8.2-3.3,12-3.5c4.8-0.2,9.4,1.2,12.6,4c6.3,5.5,6.9,16.1,1.3,23.2C102.6,57.1,95.8,60.1,88.5,60.1z"/>
		</g>
		<g id="XMLID_519_">
			<path id="XMLID_521_" class="st3" d="M85.7,54.2c-5.6-0.7-11.5-3.6-17.6-8.4l-3.6,4.4c6.9,5.5,13.7,8.8,20.4,9.6
				c0.6,0.1,1.1,0.1,1.7,0.2c1.2-1.8,2.3-3.7,3.2-5.7C88.5,54.4,87.1,54.4,85.7,54.2z"/>
			<path id="XMLID_520_" class="st3" d="M92.7,24.6c-3.8,0.2-7.7,1.3-12,3.5l2.5,5.1c3.6-1.8,6.8-2.8,9.7-2.9c1.1-0.1,2.3,0,3.3,0.2
				c0.2-2,0.4-3.9,0.6-5.6C95.5,24.7,94.1,24.6,92.7,24.6z"/>
		</g>
		<path id="XMLID_518_" class="st2" d="M93.2,11.5c0-6.2-16.9-11.2-37.7-11.2s-37.7,5-37.7,11.2c0,0-4.3,63,37.7,63
			C97.5,74.4,93.2,11.5,93.2,11.5z"/>
		<path id="XMLID_517_" class="st16" d="M55.5,21.5c-19.2,0-34.8-6.3-34.8-6.3c0-4.8,15.6-8.7,34.8-8.7s34.8,3.9,34.8,8.7
			C90.3,15.2,74.7,21.5,55.5,21.5z"/>
		<g id="XMLID_512_">
			<path id="XMLID_516_" class="st3" d="M61.8,0.4c0.1,0,0.2,0,0.3,0C62,0.4,61.9,0.4,61.8,0.4z"/>
			<polygon id="XMLID_515_" class="st3" points="68,0.9 68,0.9 68,0.9 			"/>
			<path id="XMLID_514_" class="st3" d="M28,19.1c-6.3-2-10.1-4.7-10.1-7.6c0,0-4.3,63,37.7,63c1,0,1.9,0,2.8-0.1
				C31.8,68.9,28.2,34.2,28,19.1z"/>
			<path id="XMLID_513_" class="st3" d="M58.5,0.3c0.1,0,0.3,0,0.5,0C58.8,0.3,58.6,0.3,58.5,0.3z"/>
		</g>
		<path id="XMLID_511_" class="st13" d="M55.5,22.7c-15.7,0-29.1-2.9-34.8-6.9c-0.3,10.7,0.7,55.7,34.8,55.7c34.1,0,35-45,34.8-55.7
			C84.6,19.8,71.2,22.7,55.5,22.7z"/>
		<path id="XMLID_510_" class="st16" d="M55.5,22.7c-15.7,0-29.1-2.9-34.8-6.9c-0.3,10.7,0.7,55.7,34.8,55.7c34.1,0,35-45,34.8-55.7
			C84.6,19.8,71.2,22.7,55.5,22.7z"/>
		<path id="XMLID_509_" class="st4" d="M54,71.4c31.1-1.3,33.4-41.1,33.3-54c-2.1,1-4.7,1.9-7.6,2.6c-0.3,14.2-3.8,47.1-29.6,51
			C51.4,71.3,52.7,71.4,54,71.4z"/>
		<path id="XMLID_508_" class="st17" d="M49.4,71C31,60.4,28.2,32.3,28,19.1c-3-1-5.5-2.1-7.2-3.3C20.5,25.8,21.4,65.8,49.4,71z"/>
		<g id="XMLID_501_">
			<path id="XMLID_507_" class="st17" d="M60.2,11.3c-2.2,0-4-0.5-4-1.1S58,9,60.2,9c2.2,0,4,0.5,4,1.1S62.4,11.3,60.2,11.3z"/>
			<path id="XMLID_506_" class="st17" d="M77.2,14.9c-2.2,0-4-0.5-4-1.1c0-0.6,1.8-1.1,4-1.1c2.2,0,4,0.5,4,1.1
				C81.2,14.4,79.4,14.9,77.2,14.9z"/>
			<path id="XMLID_505_" class="st17" d="M48.6,11.5c-1.6,0-2.9-0.4-2.9-0.8c0-0.5,1.3-0.8,2.9-0.8c1.6,0,2.9,0.4,2.9,0.8
				S50.2,11.5,48.6,11.5z"/>
			<path id="XMLID_504_" class="st17" d="M57.8,15.5c-1.3,0-2.3-0.3-2.3-0.7c0-0.4,1-0.7,2.3-0.7c1.3,0,2.3,0.3,2.3,0.7
				C60.1,15.3,59.1,15.5,57.8,15.5z"/>
			<path id="XMLID_503_" class="st17" d="M72.2,10.1C71,10.1,70,9.9,70,9.5c0-0.4,1-0.7,2.3-0.7s2.3,0.3,2.3,0.7
				C74.5,9.9,73.5,10.1,72.2,10.1z"/>
			<path id="XMLID_502_" class="st17" d="M68.7,16.4c-0.8,0-1.5-0.2-1.5-0.4c0-0.2,0.7-0.4,1.5-0.4s1.5,0.2,1.5,0.4
				C70.3,16.2,69.6,16.4,68.7,16.4z"/>
		</g>
		<g id="XMLID_499_">
			<path id="XMLID_500_" class="st4" d="M105.3,28.7c-3.2-2.8-7.8-4.3-12.6-4c-0.1,0-0.1,0-0.2,0c4,0.2,7.8,1.6,10.5,4
				c6.3,5.5,6.9,16.1,1.3,23.2c-3.9,4.9-10.1,7.8-16.9,8.2c0.3,0,0.7,0,1,0c7.3,0,14.1-3,18.2-8.2C112.2,44.8,111.6,34.2,105.3,28.7
				z"/>
		</g>
		<path id="XMLID_498_" class="st17" d="M38,11.1c0-1.4,1.3-2.7,3.7-3.9c-12.3,1.3-21,4.4-21,8c0,0,15.6,6.3,34.8,6.3
			c6.3,0,12.1-0.7,17.2-1.6C53.5,19.8,38,15.9,38,11.1z"/>
		<path id="XMLID_495_" class="st4" d="M55.5,0.2c-20.8,0-37.7,5-37.7,11.2s16.9,11.2,37.7,11.2s37.7-5,37.7-11.2S76.3,0.2,55.5,0.2
			z M55.5,20.3c-19.5,0-35.3-4-35.3-8.8S36,2.6,55.5,2.6s35.3,4,35.3,8.8C90.8,16.3,75,20.3,55.5,20.3z"/>
		<path id="XMLID_494_" class="st6" d="M55.5,47.1c-17.5,0-31.7-3.7-32.7-8.3c3.3,15.6,11.7,32.7,32.7,32.7
			c21,0,29.4-17.1,32.7-32.7C87.3,43.5,73,47.1,55.5,47.1z"/>
		<path id="XMLID_493_" class="st10" d="M84.4,42.5c-2.1,1-5,2-8.4,2.7c-3.8,12.1-11.2,23.6-25.8,25.9c1.2,0.2,2.6,0.3,3.9,0.4
			C72.3,70.7,80.6,56.6,84.4,42.5z"/>
		<path id="XMLID_492_" class="st11" d="M22.8,38.8c0.1,0.5,0.2,1,0.4,1.6c0.1,0.3,0.1,0.6,0.2,0.9c0.1,0.4,0.2,0.8,0.3,1.2
			c0.1,0.3,0.1,0.5,0.2,0.8c0.2,0.6,0.3,1.2,0.5,1.8c0.1,0.2,0.1,0.4,0.2,0.7c0.2,0.5,0.3,1,0.5,1.5c0.1,0.2,0.1,0.3,0.2,0.5
			c0.2,0.6,0.5,1.2,0.7,1.9c0.1,0.2,0.1,0.3,0.2,0.5c0.2,0.6,0.5,1.2,0.7,1.7c0,0.1,0.1,0.1,0.1,0.2c0.3,0.6,0.6,1.3,0.9,1.9
			c0.1,0.1,0.1,0.2,0.2,0.3c0.7,1.3,1.4,2.5,2.2,3.7c0,0.1,0.1,0.2,0.2,0.2c0.8,1.2,1.7,2.4,2.6,3.5c0,0.1,0.1,0.1,0.1,0.2
			c1,1.1,2,2.1,3.1,3.1c0,0,0.1,0.1,0.1,0.1c1.1,1,2.3,1.8,3.6,2.6c0,0,0.1,0.1,0.1,0.1c1.3,0.8,2.7,1.4,4.2,2c0,0,0.1,0,0.1,0.1
			c1.5,0.6,3.1,1,4.8,1.3c0,0,0.1,0,0.1,0c-9.7-5.6-15.1-16.1-18-26.7C26.4,42.8,23.3,40.9,22.8,38.8z"/>
		<g id="XMLID_481_">
			<path id="XMLID_491_" class="st17" d="M33.8,25.5c-1.5,0-1.5,2.4,0,2.4C35.4,27.9,35.4,25.5,33.8,25.5z"/>
			<path id="XMLID_490_" class="st17" d="M42.6,38.4c-1.5,0-1.5,2.4,0,2.4C44.1,40.8,44.1,38.4,42.6,38.4z"/>
			<path id="XMLID_489_" class="st17" d="M56,28.7c-1.5,0-1.5,2.4,0,2.4C57.5,31.1,57.6,28.7,56,28.7z"/>
			<path id="XMLID_488_" class="st17" d="M63.1,39.6c-1.5,0-1.5,2.4,0,2.4C64.6,42,64.6,39.6,63.1,39.6z"/>
			<path id="XMLID_487_" class="st17" d="M73.7,25.7c-1.5,0-1.5,2.4,0,2.4C75.2,28.1,75.2,25.7,73.7,25.7z"/>
			<path id="XMLID_486_" class="st17" d="M67.6,30.4c-0.8,0-0.8,1.2,0,1.2C68.4,31.6,68.4,30.4,67.6,30.4z"/>
			<path id="XMLID_485_" class="st17" d="M72.5,39.6c-0.8,0-0.8,1.2,0,1.2C73.2,40.8,73.2,39.6,72.5,39.6z"/>
			<path id="XMLID_484_" class="st17" d="M53.7,37.4c-0.8,0-0.8,1.2,0,1.2C54.5,38.6,54.5,37.4,53.7,37.4z"/>
			<path id="XMLID_483_" class="st17" d="M44.5,26.6c-0.8,0-0.8,1.2,0,1.2C45.3,27.8,45.3,26.6,44.5,26.6z"/>
			<path id="XMLID_482_" class="st17" d="M34.4,37.1c-0.8,0-0.8,1.2,0,1.2C35.2,38.3,35.2,37.1,34.4,37.1z"/>
		</g>
		<g id="XMLID_470_">
			<path id="XMLID_480_" class="st11" d="M38.4,48.9c-1.5,0-1.5,2.4,0,2.4C39.9,51.3,39.9,48.9,38.4,48.9z"/>
			<path id="XMLID_479_" class="st11" d="M47.3,61.1c-1.5,0-1.5,2.4,0,2.4C48.8,63.5,48.8,61.1,47.3,61.1z"/>
			<path id="XMLID_478_" class="st11" d="M54.8,50.1c-1.5,0-1.5,2.4,0,2.4C56.3,52.5,56.3,50.1,54.8,50.1z"/>
			<path id="XMLID_477_" class="st11" d="M59.3,60.6c-1.5,0-1.5,2.4,0,2.4C60.8,63,60.9,60.6,59.3,60.6z"/>
			<path id="XMLID_476_" class="st11" d="M68.3,50.1c-1.5,0-1.5,2.4,0,2.4C69.9,52.5,69.9,50.1,68.3,50.1z"/>
			<path id="XMLID_475_" class="st11" d="M62.7,51c-0.8,0-0.8,1.2,0,1.2C63.5,52.2,63.5,51,62.7,51z"/>
			<path id="XMLID_474_" class="st11" d="M47.3,50.2c-0.8,0-0.8,1.2,0,1.2C48,51.4,48,50.2,47.3,50.2z"/>
			<path id="XMLID_473_" class="st11" d="M52.9,65.6c-0.8,0-0.8,1.2,0,1.2C53.6,66.8,53.6,65.6,52.9,65.6z"/>
			<path id="XMLID_472_" class="st11" d="M65.9,57.7c-0.8,0-0.8,1.2,0,1.2C66.7,58.9,66.7,57.7,65.9,57.7z"/>
			<path id="XMLID_471_" class="st11" d="M40.5,55.6c-0.8,0-0.8,1.2,0,1.2C41.3,56.8,41.3,55.6,40.5,55.6z"/>
		</g>
		<g id="XMLID_466_">
			<path id="XMLID_469_" class="st6" d="M76,54.7c-0.8,0-0.8,1.2,0,1.2C76.8,55.9,76.8,54.7,76,54.7z"/>
			<path id="XMLID_468_" class="st6" d="M77.9,48.3c-1.5,0-1.5,2.4,0,2.4C79.5,50.7,79.5,48.3,77.9,48.3z"/>
			<path id="XMLID_467_" class="st6" d="M71.8,60.5c-1.5,0-1.5,2.4,0,2.4C73.3,62.9,73.3,60.5,71.8,60.5z"/>
		</g>
		<g id="XMLID_462_">
			<path id="XMLID_465_" class="st16" d="M82,38.1c-1.5,0-1.5,2.4,0,2.4C83.6,40.5,83.6,38.1,82,38.1z"/>
			<path id="XMLID_464_" class="st16" d="M81.4,31.8c-0.8,0-0.8,1.2,0,1.2C82.1,33,82.1,31.8,81.4,31.8z"/>
			<path id="XMLID_463_" class="st16" d="M84.6,23.5c-0.8,0-0.8,1.2,0,1.2C85.4,24.7,85.4,23.5,84.6,23.5z"/>
		</g>
	</g>
</g>
</svg>
