<?xml version="1.0" encoding="utf-8"?>
<!-- Generator: Adobe Illustrator 19.0.0, SVG Export Plug-In . SVG Version: 6.00 Build 0)  -->
<svg version="1.1" xmlns="http://www.w3.org/2000/svg" xmlns:xlink="http://www.w3.org/1999/xlink" x="0px" y="0px"
	 viewBox="0 0 110.9 91.9" style="enable-background:new 0 0 110.9 91.9;" xml:space="preserve">
<style type="text/css">
	.st0{opacity:0.75;fill:#C6978E;enable-background:new    ;}
	.st1{opacity:0.75;fill:#311C1C;enable-background:new    ;}
	.st2{fill:#EEEDED;}
	.st3{fill:#DADADA;}
	.st4{fill:#FFFFFF;}
	.st5{fill:#C7C6C7;}
	.st6{fill:#62381F;}
	.st7{fill:#F9E9D2;}
	.st8{fill:#F1DABE;}
	.st9{fill:#FFF4E7;}
	.st10{fill:#724124;}
	.st11{fill:#522E1A;}
	.st12{fill:#814929;}
	.st13{fill:#D1E7F0;}
	.st14{fill:#935333;}
	.st15{fill:#6C3B23;}
	.st16{fill:#FFF9F0;}
	.st17{fill:#F4E7DB;}
	.st18{fill:#FFF6EC;}
	.st19{fill:#432717;}
	.st20{fill:#E6F4F9;}
	.st21{fill:#BCDADF;}
	.st22{opacity:0.25;fill:#D1E7F0;enable-background:new    ;}
</style>
<g id="Ebene_3">
	<ellipse id="XMLID_293_" class="st0" cx="55.5" cy="79.2" rx="55.5" ry="12.7"/>
</g>
<g id="Ebene_1_Kopie">
	<g id="XMLID_673_">
		<ellipse id="XMLID_721_" class="st1" cx="56" cy="78.2" rx="28.8" ry="6.6"/>
		<g id="XMLID_674_">
			<path id="XMLID_720_" class="st2" d="M56,69.4H40.2c0,9.1,10,8.8,15.8,8.8c5.8,0,15.8,0.3,15.8-8.8H56z"/>
			<path id="XMLID_719_" class="st3" d="M71.4,72.2c0.2-0.8,0.4-1.7,0.4-2.7H56H44.9h-4.7c0,0.5,0,1,0.1,1.5
				c1,7.6,10.2,7.3,15.7,7.3c0.7,0,1.5,0,2.4,0c-4.2,0-9.4-0.5-11.9-3.7c2.9,0.8,6,1.2,9.5,1.2C62,75.7,67.1,74.4,71.4,72.2z"/>
			<g id="XMLID_717_">
				<path id="XMLID_718_" class="st2" d="M88.9,59.8c-1.2,0-2.3-0.1-3.5-0.2C78.7,58.7,71.8,55.5,65,50l3.6-4.4
					c6,4.9,12,7.7,17.6,8.4c6.6,0.9,13.1-1.4,16.5-5.9c3.7-4.7,3.4-11.9-0.6-15.4c-2.1-1.8-5.2-2.8-8.6-2.7
					c-2.9,0.1-6.1,1.1-9.7,2.9l-2.5-5.1c4.3-2.2,8.2-3.3,12-3.5c4.8-0.2,9.4,1.2,12.6,4.1c6.3,5.5,6.9,16.1,1.3,23.2
					C103,56.8,96.2,59.8,88.9,59.8z"/>
			</g>
			<g id="XMLID_714_">
				<path id="XMLID_716_" class="st3" d="M86.1,54c-5.6-0.7-11.5-3.6-17.6-8.4L65,50c6.9,5.5,13.7,8.8,20.4,9.6
					c0.6,0.1,1.1,0.1,1.7,0.2c1.2-1.8,2.3-3.7,3.2-5.7C88.9,54.2,87.5,54.2,86.1,54z"/>
				<path id="XMLID_715_" class="st3" d="M93.2,24.4c-3.8,0.2-7.7,1.3-12,3.5l2.5,5.1c3.6-1.8,6.8-2.8,9.7-2.9
					c1.1-0.1,2.3,0,3.3,0.2c0.2-2,0.4-3.9,0.6-5.6C96,24.4,94.6,24.3,93.2,24.4z"/>
			</g>
			<path id="XMLID_713_" class="st2" d="M93.6,11.2C93.6,5,76.8,0,56,0S18.3,5,18.3,11.2c0,0-4.3,63,37.7,63S93.6,11.2,93.6,11.2z"
				/>
			<path id="XMLID_710_" class="st4" d="M56,0C35.2,0,18.3,5,18.3,11.2S35.2,22.5,56,22.5s37.7-5,37.7-11.2S76.8,0,56,0z M56,20.1
				c-19.5,0-35.3-4-35.3-8.8S36.5,2.4,56,2.4s35.3,4,35.3,8.8S75.5,20.1,56,20.1z"/>
			<g id="XMLID_705_">
				<path id="XMLID_709_" class="st3" d="M62.2,0.2c0.1,0,0.2,0,0.3,0C62.4,0.2,62.3,0.2,62.2,0.2z"/>
				<path id="XMLID_708_" class="st3" d="M68.4,0.6L68.4,0.6L68.4,0.6z"/>
				<path id="XMLID_707_" class="st3" d="M28.4,18.9c-6.3-2-10.1-4.7-10.1-7.6c0,0-4.3,63,37.7,63c1,0,1.9,0,2.8-0.1
					C32.3,68.7,28.7,34,28.4,18.9z"/>
				<path id="XMLID_706_" class="st3" d="M58.9,0c0.2,0,0.3,0,0.5,0C59.2,0,59.1,0,58.9,0z"/>
			</g>
			<path id="XMLID_704_" class="st3" d="M56,22.5c-15.7,0-29.1-2.9-34.8-6.9C20.9,26.2,21.9,71.3,56,71.3c34.1,0,35-45,34.8-55.7
				C85.1,19.6,71.7,22.5,56,22.5z"/>
			<path id="XMLID_703_" class="st2" d="M54.5,71.2c31.1-1.3,33.4-41.1,33.3-54c-2.1,1-4.7,1.9-7.6,2.6c-0.3,14.2-3.8,47.1-29.6,51
				C51.8,71,53.1,71.1,54.5,71.2z"/>
			<path id="XMLID_702_" class="st5" d="M49.8,70.7C31.4,60.2,28.7,32.1,28.4,18.9c-3-1-5.5-2.1-7.2-3.3
				C21,25.6,21.8,65.6,49.8,70.7z"/>
			<path id="XMLID_701_" class="st6" d="M25.2,46C29.6,59.2,38.3,71.3,56,71.3S82.4,59.2,86.7,46H25.2z"/>
			<path id="XMLID_738_" class="st7" d="M53.7,45.2C40.2,45,28.8,43,23.7,40.3c1.5,6.9,7.6,29.4,30.3,31c25.3,1.8,32.6-23.1,34.4-31
				C81.7,43.4,68.1,45.3,53.7,45.2z"/>
			<path id="XMLID_736_" class="st8" d="M49.7,70.8c-13.1-5.4-17.9-20-19.7-28.2c-2.6-0.7-4.7-1.4-6.3-2.3
				C25.1,46.8,30.6,67.3,49.7,70.8z"/>
			<path id="XMLID_737_" class="st9" d="M53,71.2c23,1.1,29.9-20.4,32-29.6c-2.3,0.7-5.1,1.4-8.2,1.9c-1.9,9.6-7.6,26.9-26.5,27.3
				C51.1,71,52,71.1,53,71.2z"/>
			<path id="XMLID_41_" class="st6" d="M57.1,55.9c-15.6,0.1-29.1-2.5-30.4-5.9c4.2,11.1,12.5,21.8,30,21.3
				c16.6-0.5,24.4-10.8,28.4-21C83.9,53.3,71.9,55.8,57.1,55.9z"/>
			<path id="XMLID_45_" class="st10" d="M81.3,52.8c-2.7,0.9-4.4,1.3-8.1,1.9c-5.8,8.8-14.7,15.5-24.9,15.8c0.8,0.2,1.7,0.3,2.6,0.4
				C64,71.7,73.4,63.8,81.3,52.8z"/>
			<path id="XMLID_42_" class="st11" d="M26.8,50.2c0.2,0.4,0.4,0.8,0.5,1.2c0.1,0.2,0.2,0.4,0.3,0.6c0.1,0.3,0.3,0.6,0.4,0.8
				c0.1,0.2,0.2,0.4,0.3,0.5c0.2,0.4,0.4,0.8,0.6,1.2c0.1,0.2,0.2,0.3,0.2,0.5c0.2,0.3,0.4,0.7,0.6,1c0.1,0.1,0.1,0.2,0.2,0.3
				c0.2,0.4,0.5,0.8,0.7,1.2c0.1,0.1,0.1,0.2,0.2,0.3c0.2,0.4,0.5,0.7,0.7,1.1c0,0,0.1,0.1,0.1,0.1c0.3,0.4,0.6,0.8,0.8,1.2
				c0.1,0.1,0.1,0.1,0.2,0.2c0.6,0.8,1.2,1.5,1.8,2.2c0,0,0.1,0.1,0.1,0.1c0.6,0.7,1.3,1.4,2,2c0,0,0.1,0.1,0.1,0.1
				c0.7,0.6,1.4,1.2,2.2,1.8c0,0,0.1,0,0.1,0.1c0.8,0.5,1.6,1,2.5,1.5c0,0,0.1,0,0.1,0c0.9,0.4,1.8,0.9,2.8,1.2c0,0,0.1,0,0.1,0
				c1,0.3,2,0.6,3.1,0.9c0,0,0,0,0.1,0c-6.5-3.3-11.1-9.9-14.3-16.9C29.8,52.5,27.5,51.7,26.8,50.2z"/>
			<g id="XMLID_684_">
				<path id="XMLID_687_" class="st6" d="M72.2,59.5c-1.5,0-1.5,2.4,0,2.4C73.8,61.9,73.8,59.5,72.2,59.5z"/>
				<path id="XMLID_686_" class="st6" d="M76.5,54.7c-0.8,0-0.8,1.2,0,1.2C77.3,55.9,77.3,54.7,76.5,54.7z"/>
				<path id="XMLID_685_" class="st6" d="M66.2,65c-0.8,0-0.8,1.2,0,1.2C67,66.2,67,65,66.2,65z"/>
			</g>
			<g id="XMLID_677_">
				<path id="XMLID_683_" class="st11" d="M41.7,56c-1.5,0-1.5,2.4,0,2.4C43.3,58.4,43.3,56,41.7,56z"/>
				<path id="XMLID_682_" class="st11" d="M52.5,64c-1.5,0-1.5,2.4,0,2.4C54.1,66.4,54.1,64,52.5,64z"/>
				<path id="XMLID_681_" class="st11" d="M64.8,55.8c-1.5,0-1.5,2.4,0,2.4C66.3,58.2,66.3,55.8,64.8,55.8z"/>
				<path id="XMLID_680_" class="st11" d="M59.3,62.1c-0.8,0-0.8,1.2,0,1.2C60.1,63.3,60.1,62.1,59.3,62.1z"/>
				<path id="XMLID_679_" class="st11" d="M51,56.2c-0.8,0-0.8,1.2,0,1.2C51.7,57.4,51.7,56.2,51,56.2z"/>
				<path id="XMLID_678_" class="st11" d="M45.4,61.9c-0.8,0-0.8,1.2,0,1.2C46.2,63.1,46.2,61.9,45.4,61.9z"/>
			</g>
			<g id="XMLID_675_">
				<path id="XMLID_676_" class="st4" d="M105.8,28.5c-3.2-2.8-7.8-4.3-12.6-4.1c-0.1,0-0.1,0-0.2,0c4,0.2,7.8,1.6,10.5,4
					c6.3,5.5,6.9,16.1,1.3,23.2c-3.9,4.9-10.1,7.8-16.9,8.2c0.3,0,0.7,0,1,0c7.3,0,14.1-3,18.2-8.2C112.7,44.6,112,34,105.8,28.5z"
					/>
			</g>
		</g>
		<path id="XMLID_730_" class="st7" d="M56.1,46.6c-17.9,0-32.5-6.3-32.5-6.3c0-4.8,14.5-8.7,32.5-8.7s32.5,3.9,32.5,8.7
			C88.6,40.3,74.1,46.6,56.1,46.6z"/>
		<g id="XMLID_723_">
			<path id="XMLID_729_" class="st8" d="M60.5,36.4c-2.1,0-3.7-0.5-3.7-1.1s1.7-1.1,3.7-1.1c2.1,0,3.7,0.5,3.7,1.1
				S62.6,36.4,60.5,36.4z"/>
			<path id="XMLID_728_" class="st8" d="M76.3,40c-2.1,0-3.7-0.5-3.7-1.1c0-0.6,1.7-1.1,3.7-1.1c2.1,0,3.7,0.5,3.7,1.1
				C80.1,39.5,78.4,40,76.3,40z"/>
			<path id="XMLID_727_" class="st8" d="M49.6,36.6c-1.5,0-2.7-0.4-2.7-0.8c0-0.5,1.2-0.8,2.7-0.8c1.5,0,2.7,0.4,2.7,0.8
				C52.3,36.2,51.1,36.6,49.6,36.6z"/>
			<path id="XMLID_726_" class="st8" d="M58.3,40.7c-1.2,0-2.1-0.3-2.1-0.7c0-0.4,0.9-0.7,2.1-0.7s2.1,0.3,2.1,0.7
				S59.4,40.7,58.3,40.7z"/>
			<path id="XMLID_725_" class="st8" d="M71.7,35.3c-1.2,0-2.1-0.3-2.1-0.7c0-0.4,0.9-0.7,2.1-0.7s2.1,0.3,2.1,0.7
				C73.8,35,72.9,35.3,71.7,35.3z"/>
			<path id="XMLID_724_" class="st8" d="M68.5,41.6c-0.8,0-1.4-0.2-1.4-0.4s0.6-0.4,1.4-0.4c0.8,0,1.4,0.2,1.4,0.4
				C69.9,41.4,69.2,41.6,68.5,41.6z"/>
		</g>
		<path id="XMLID_722_" class="st8" d="M39.8,36.2c0-1.4,1.2-2.7,3.4-3.9c-11.5,1.3-19.6,4.4-19.6,8c0,0,14.5,6.3,32.5,6.3
			c5.8,0,11.3-0.7,16-1.6C54.2,45,39.8,41,39.8,36.2z"/>
		<g id="XMLID_693_">
			<path id="XMLID_735_" class="st8" d="M38.8,48.3c-1.2,0-1.2,1.8,0,1.8C40,50,40,48.3,38.8,48.3z"/>
			<path id="XMLID_733_" class="st8" d="M55.4,50.6c-1.2,0-1.2,1.8,0,1.8C56.5,52.4,56.5,50.6,55.4,50.6z"/>
			<path id="XMLID_731_" class="st8" d="M68.5,48.4c-1.2,0-1.2,1.8,0,1.8C69.7,50.2,69.7,48.4,68.5,48.4z"/>
			<path id="XMLID_698_" class="st8" d="M64,51.9c-0.6,0-0.6,0.9,0,0.9C64.6,52.8,64.6,51.9,64,51.9z"/>
			<path id="XMLID_695_" class="st8" d="M46.8,49c-0.6,0-0.6,0.9,0,0.9C47.4,49.9,47.4,49,46.8,49z"/>
		</g>
		<g id="XMLID_688_">
			<path id="XMLID_691_" class="st7" d="M76.9,50.9c-0.6,0-0.6,0.9,0,0.9C77.5,51.8,77.5,50.9,76.9,50.9z"/>
			<path id="XMLID_690_" class="st7" d="M79.4,44.7c-0.6,0-0.6,0.9,0,0.9C80,45.6,80,44.7,79.4,44.7z"/>
		</g>
	</g>
</g>
</svg>
