<?xml version="1.0" encoding="utf-8"?>
<!-- Generator: Adobe Illustrator 19.0.0, SVG Export Plug-In . SVG Version: 6.00 Build 0)  -->
<svg version="1.1" xmlns="http://www.w3.org/2000/svg" xmlns:xlink="http://www.w3.org/1999/xlink" x="0px" y="0px"
	 viewBox="0 0 110.9 91.9" style="enable-background:new 0 0 110.9 91.9;" xml:space="preserve">
<style type="text/css">
	.st0{opacity:0.75;fill:#C6978E;enable-background:new    ;}
	.st1{opacity:0.75;fill:#311C1C;enable-background:new    ;}
	.st2{fill:#EEEDED;}
	.st3{fill:#DADADA;}
	.st4{fill:#FFFFFF;}
	.st5{fill:#C7C6C7;}
	.st6{fill:#62381F;}
	.st7{fill:#F9E9D2;}
	.st8{fill:#F1DABE;}
	.st9{fill:#FFF4E7;}
	.st10{fill:#724124;}
	.st11{fill:#522E1A;}
	.st12{fill:#814929;}
	.st13{fill:#D1E7F0;}
	.st14{fill:#935333;}
	.st15{fill:#6C3B23;}
	.st16{fill:#FFF9F0;}
	.st17{fill:#F4E7DB;}
	.st18{fill:#FFF6EC;}
	.st19{fill:#432717;}
	.st20{fill:#E6F4F9;}
	.st21{fill:#BCDADF;}
	.st22{opacity:0.25;fill:#D1E7F0;enable-background:new    ;}
</style>
<g id="Ebene_3">
	<ellipse id="XMLID_293_" class="st0" cx="55.5" cy="79.2" rx="55.5" ry="12.7"/>
</g>
<g id="Ebene_4">
	<ellipse id="XMLID_373_" class="st1" cx="55.9" cy="78.3" rx="28.8" ry="6.6"/>
	<g id="XMLID_308_">
		<path id="XMLID_372_" class="st2" d="M55.9,69.5H40.1c0,9.1,10,8.8,15.8,8.8c5.8,0,15.8,0.3,15.8-8.8H55.9z"/>
		<path id="XMLID_371_" class="st3" d="M71.3,72.2c0.2-0.8,0.4-1.7,0.4-2.7H55.9H44.8h-4.7c0,0.5,0,1,0.1,1.5
			c1,7.6,10.2,7.3,15.7,7.3c0.7,0,1.5,0,2.4,0c-4.2,0-9.4-0.5-11.9-3.7c2.9,0.8,6,1.2,9.5,1.2C62,75.8,67,74.5,71.3,72.2z"/>
		<g id="XMLID_369_">
			<path id="XMLID_370_" class="st2" d="M88.8,59.9c-1.2,0-2.3-0.1-3.5-0.2c-6.7-0.9-13.5-4.1-20.4-9.6l3.6-4.4
				c6,4.9,12,7.7,17.6,8.4c6.6,0.9,13.1-1.4,16.5-5.9c3.7-4.7,3.4-11.9-0.6-15.4c-2.1-1.8-5.2-2.8-8.6-2.7c-2.9,0.1-6.1,1.1-9.7,2.9
				L81.1,28c4.3-2.2,8.2-3.3,12-3.5c4.8-0.2,9.4,1.2,12.6,4c6.3,5.5,6.9,16.1,1.3,23.2C102.9,56.9,96.2,59.9,88.8,59.9z"/>
		</g>
		<g id="XMLID_366_">
			<path id="XMLID_368_" class="st3" d="M86,54c-5.6-0.7-11.5-3.6-17.6-8.4L64.9,50c6.9,5.5,13.7,8.8,20.4,9.6
				c0.6,0.1,1.1,0.1,1.7,0.2c1.2-1.8,2.3-3.7,3.2-5.7C88.8,54.3,87.4,54.2,86,54z"/>
			<path id="XMLID_367_" class="st3" d="M93.1,24.5c-3.8,0.2-7.7,1.3-12,3.5l2.5,5.1c3.6-1.8,6.8-2.8,9.7-2.9c1.1-0.1,2.3,0,3.3,0.2
				c0.2-2,0.4-3.9,0.6-5.6C95.9,24.5,94.5,24.4,93.1,24.5z"/>
		</g>
		<path id="XMLID_365_" class="st2" d="M93.6,11.3c0-6.2-16.9-11.2-37.7-11.2s-37.7,5-37.7,11.2c0,0-4.3,63,37.7,63
			S93.6,11.3,93.6,11.3z"/>
		<path id="XMLID_364_" class="st7" d="M55.9,21.3c-19.2,0-34.8-6.3-34.8-6.3c0-4.8,15.6-8.7,34.8-8.7s34.8,3.9,34.8,8.7
			C90.7,15,75.1,21.3,55.9,21.3z"/>
		<g id="XMLID_359_">
			<path id="XMLID_363_" class="st3" d="M62.2,0.2c0.1,0,0.2,0,0.3,0C62.4,0.2,62.3,0.2,62.2,0.2z"/>
			<path id="XMLID_362_" class="st3" d="M68.3,0.7L68.3,0.7L68.3,0.7z"/>
			<path id="XMLID_361_" class="st3" d="M28.3,18.9c-6.3-2-10.1-4.7-10.1-7.6c0,0-4.3,63,37.7,63c1,0,1.9,0,2.8-0.1
				C32.2,68.7,28.6,34.1,28.3,18.9z"/>
			<path id="XMLID_360_" class="st3" d="M58.9,0.1c0.2,0,0.3,0,0.5,0C59.2,0.1,59,0.1,58.9,0.1z"/>
		</g>
		<path id="XMLID_358_" class="st13" d="M55.9,22.5c-15.7,0-29.1-2.9-34.8-6.9c-0.3,10.7,0.7,55.7,34.8,55.7c34.1,0,35-45,34.8-55.7
			C85,19.7,71.6,22.5,55.9,22.5z"/>
		<path id="XMLID_357_" class="st7" d="M55.9,22.5c-15.7,0-29.1-2.9-34.8-6.9c-0.3,10.7,0.7,55.7,34.8,55.7c34.1,0,35-45,34.8-55.7
			C85,19.7,71.6,22.5,55.9,22.5z"/>
		<path id="XMLID_356_" class="st9" d="M54.4,71.3c31.1-1.3,33.4-41.1,33.3-54c-2.1,1-4.7,1.9-7.6,2.6c-0.3,14.2-3.8,47.1-29.6,51
			C51.8,71.1,53.1,71.2,54.4,71.3z"/>
		<path id="XMLID_355_" class="st8" d="M49.7,70.8C31.4,60.3,28.6,32.2,28.3,18.9c-3-1-5.5-2.1-7.2-3.3
			C20.9,25.6,21.7,65.7,49.7,70.8z"/>
		<g id="XMLID_348_">
			<path id="XMLID_354_" class="st8" d="M60.6,11.1c-2.2,0-4-0.5-4-1.1s1.8-1.1,4-1.1c2.2,0,4,0.5,4,1.1S62.8,11.1,60.6,11.1z"/>
			<path id="XMLID_353_" class="st8" d="M77.6,14.7c-2.2,0-4-0.5-4-1.1c0-0.6,1.8-1.1,4-1.1c2.2,0,4,0.5,4,1.1
				C81.5,14.2,79.8,14.7,77.6,14.7z"/>
			<path id="XMLID_352_" class="st8" d="M48.9,11.3c-1.6,0-2.9-0.4-2.9-0.8c0-0.5,1.3-0.8,2.9-0.8c1.6,0,2.9,0.4,2.9,0.8
				C51.8,10.9,50.5,11.3,48.9,11.3z"/>
			<path id="XMLID_351_" class="st8" d="M58.2,15.4c-1.3,0-2.3-0.3-2.3-0.7c0-0.4,1-0.7,2.3-0.7s2.3,0.3,2.3,0.7
				S59.4,15.4,58.2,15.4z"/>
			<path id="XMLID_350_" class="st8" d="M72.6,10c-1.3,0-2.3-0.3-2.3-0.7c0-0.4,1-0.7,2.3-0.7s2.3,0.3,2.3,0.7
				C74.9,9.7,73.9,10,72.6,10z"/>
			<path id="XMLID_349_" class="st8" d="M69.1,16.3c-0.8,0-1.5-0.2-1.5-0.4c0-0.2,0.7-0.4,1.5-0.4s1.5,0.2,1.5,0.4
				C70.6,16.1,70,16.3,69.1,16.3z"/>
		</g>
		<g id="XMLID_346_">
			<path id="XMLID_347_" class="st4" d="M105.7,28.5c-3.2-2.8-7.8-4.3-12.6-4c-0.1,0-0.1,0-0.2,0c4,0.2,7.8,1.6,10.5,4
				c6.3,5.5,6.9,16.1,1.3,23.2c-3.9,4.9-10.1,7.8-16.9,8.2c0.3,0,0.7,0,1,0c7.3,0,14.1-3,18.2-8.2C112.6,44.6,112,34,105.7,28.5z"/>
		</g>
		<path id="XMLID_345_" class="st8" d="M38.4,10.9c0-1.4,1.3-2.7,3.7-3.9c-12.3,1.3-21,4.4-21,8c0,0,15.6,6.3,34.8,6.3
			c6.3,0,12.1-0.7,17.2-1.6C53.9,19.7,38.4,15.8,38.4,10.9z"/>
		<path id="XMLID_342_" class="st4" d="M55.9,0.1c-20.8,0-37.7,5-37.7,11.2s16.9,11.2,37.7,11.2s37.7-5,37.7-11.2S76.7,0.1,55.9,0.1
			z M55.9,20.1c-19.5,0-35.3-4-35.3-8.8s15.8-8.8,35.3-8.8s35.3,4,35.3,8.8C91.2,16.2,75.4,20.1,55.9,20.1z"/>
		<path id="XMLID_341_" class="st6" d="M55.9,47c-17.5,0-31.7-3.7-32.7-8.3c3.3,15.6,11.7,32.7,32.7,32.7c21,0,29.4-17.1,32.7-32.7
			C87.7,43.3,73.4,47,55.9,47z"/>
		<path id="XMLID_340_" class="st10" d="M84.8,42.3c-2.1,1-5,2-8.4,2.7c-3.8,12.1-11.2,23.6-25.8,25.9c1.2,0.2,2.6,0.3,3.9,0.4
			C72.7,70.5,81,56.4,84.8,42.3z"/>
		<path id="XMLID_339_" class="st11" d="M23.2,38.7c0.1,0.5,0.2,1,0.3,1.6c0.1,0.3,0.1,0.6,0.2,0.9c0.1,0.4,0.2,0.8,0.3,1.2
			c0.1,0.3,0.1,0.5,0.2,0.8c0.2,0.6,0.3,1.2,0.5,1.8c0.1,0.2,0.1,0.4,0.2,0.7c0.2,0.5,0.3,1,0.5,1.5c0.1,0.2,0.1,0.3,0.2,0.5
			c0.2,0.6,0.5,1.2,0.7,1.9c0.1,0.2,0.1,0.3,0.2,0.5c0.2,0.6,0.5,1.2,0.7,1.7c0,0.1,0.1,0.1,0.1,0.2c0.3,0.6,0.6,1.3,0.9,1.9
			c0.1,0.1,0.1,0.2,0.2,0.3c0.7,1.3,1.4,2.5,2.2,3.7c0.1,0.1,0.1,0.2,0.2,0.2c0.8,1.2,1.7,2.4,2.6,3.5c0,0.1,0.1,0.1,0.1,0.2
			c1,1.1,2,2.1,3.1,3.1c0,0,0.1,0.1,0.1,0.1c1.1,1,2.3,1.8,3.6,2.6c0,0,0.1,0.1,0.1,0.1c1.3,0.8,2.7,1.4,4.2,2c0.1,0,0.1,0,0.2,0.1
			c1.5,0.6,3.1,1,4.8,1.3c0,0,0.1,0,0.1,0c-9.7-5.6-15.1-16.1-18-26.7C26.8,42.6,23.6,40.8,23.2,38.7z"/>
		<g id="XMLID_328_">
			<path id="XMLID_338_" class="st8" d="M34.2,25.4c-1.5,0-1.5,2.4,0,2.4C35.7,27.8,35.7,25.4,34.2,25.4z"/>
			<path id="XMLID_337_" class="st8" d="M43,38.2c-1.5,0-1.5,2.4,0,2.4C44.5,40.6,44.5,38.2,43,38.2z"/>
			<path id="XMLID_336_" class="st8" d="M56.4,28.5c-1.5,0-1.5,2.4,0,2.4C57.9,30.9,57.9,28.5,56.4,28.5z"/>
			<path id="XMLID_335_" class="st8" d="M63.5,39.4c-1.5,0-1.5,2.4,0,2.4C65,41.8,65,39.4,63.5,39.4z"/>
			<path id="XMLID_334_" class="st8" d="M74,25.5c-1.5,0-1.5,2.4,0,2.4C75.6,27.9,75.6,25.5,74,25.5z"/>
			<path id="XMLID_333_" class="st8" d="M68,30.2c-0.8,0-0.8,1.2,0,1.2C68.8,31.4,68.8,30.2,68,30.2z"/>
			<path id="XMLID_332_" class="st8" d="M72.8,39.4c-0.8,0-0.8,1.2,0,1.2C73.6,40.6,73.6,39.4,72.8,39.4z"/>
			<path id="XMLID_331_" class="st8" d="M54.1,37.3c-0.8,0-0.8,1.2,0,1.2C54.9,38.5,54.9,37.3,54.1,37.3z"/>
			<path id="XMLID_330_" class="st8" d="M44.9,26.4c-0.8,0-0.8,1.2,0,1.2C45.7,27.6,45.7,26.4,44.9,26.4z"/>
			<path id="XMLID_329_" class="st8" d="M34.8,37c-0.8,0-0.8,1.2,0,1.2C35.6,38.2,35.6,37,34.8,37z"/>
		</g>
		<g id="XMLID_317_">
			<path id="XMLID_327_" class="st11" d="M38.7,48.7c-1.5,0-1.5,2.4,0,2.4C40.3,51.1,40.3,48.7,38.7,48.7z"/>
			<path id="XMLID_326_" class="st11" d="M47.6,60.9c-1.5,0-1.5,2.4,0,2.4C49.2,63.3,49.2,60.9,47.6,60.9z"/>
			<path id="XMLID_325_" class="st11" d="M55.2,49.9c-1.5,0-1.5,2.4,0,2.4C56.7,52.3,56.7,49.9,55.2,49.9z"/>
			<path id="XMLID_324_" class="st11" d="M59.7,60.5c-1.5,0-1.5,2.4,0,2.4C61.2,62.9,61.2,60.5,59.7,60.5z"/>
			<path id="XMLID_323_" class="st11" d="M68.7,49.9c-1.5,0-1.5,2.4,0,2.4C70.3,52.3,70.3,49.9,68.7,49.9z"/>
			<path id="XMLID_322_" class="st11" d="M63.1,50.8c-0.8,0-0.8,1.2,0,1.2C63.9,52,63.9,50.8,63.1,50.8z"/>
			<path id="XMLID_321_" class="st11" d="M47.6,50.1c-0.8,0-0.8,1.2,0,1.2C48.4,51.3,48.4,50.1,47.6,50.1z"/>
			<path id="XMLID_320_" class="st11" d="M53.2,65.5c-0.8,0-0.8,1.2,0,1.2C54,66.7,54,65.5,53.2,65.5z"/>
			<path id="XMLID_319_" class="st11" d="M66.3,57.5c-0.8,0-0.8,1.2,0,1.2C67,58.7,67,57.5,66.3,57.5z"/>
			<path id="XMLID_318_" class="st11" d="M40.9,55.5c-0.8,0-0.8,1.2,0,1.2C41.7,56.7,41.7,55.5,40.9,55.5z"/>
		</g>
		<g id="XMLID_313_">
			<path id="XMLID_316_" class="st6" d="M76.4,54.5c-0.8,0-0.8,1.2,0,1.2C77.2,55.7,77.2,54.5,76.4,54.5z"/>
			<path id="XMLID_315_" class="st6" d="M78.3,48.2c-1.5,0-1.5,2.4,0,2.4C79.8,50.6,79.9,48.2,78.3,48.2z"/>
			<path id="XMLID_314_" class="st6" d="M72.1,60.3c-1.5,0-1.5,2.4,0,2.4C73.7,62.7,73.7,60.3,72.1,60.3z"/>
		</g>
		<g id="XMLID_309_">
			<path id="XMLID_312_" class="st7" d="M82.4,37.9c-1.5,0-1.5,2.4,0,2.4C84,40.3,84,37.9,82.4,37.9z"/>
			<path id="XMLID_311_" class="st7" d="M81.7,31.6c-0.8,0-0.8,1.2,0,1.2C82.5,32.8,82.5,31.6,81.7,31.6z"/>
			<path id="XMLID_310_" class="st7" d="M85,23.3c-0.8,0-0.8,1.2,0,1.2C85.8,24.5,85.8,23.3,85,23.3z"/>
		</g>
	</g>
</g>
</svg>
